<svg xmlns="http://www.w3.org/2000/svg" xmlns:xlink="http://www.w3.org/1999/xlink" xmlns:lucid="lucid" width="1820" height="1508"><g transform="translate(-25.433070866141634 -180)" lucid:page-tab-id="0_0"><path d="M0 0h1870.87v2581.67H0z" fill="#fff"/><path d="M780 206a6 6 0 0 1 6-6h328a6 6 0 0 1 6 6v148a6 6 0 0 1-6 6H786a6 6 0 0 1-6-6z" stroke="#3a414a" fill="#fff"/><use xlink:href="#a" transform="matrix(1,0,0,1,792,212) translate(22.93827160493828 73.02777777777777)"/><use xlink:href="#b" transform="matrix(1,0,0,1,792,212) translate(29.111111111111118 73.02777777777777)"/><use xlink:href="#c" transform="matrix(1,0,0,1,792,212) translate(47.62962962962963 73.02777777777777)"/><use xlink:href="#d" transform="matrix(1,0,0,1,792,212) translate(59.97530864197532 73.02777777777777)"/><use xlink:href="#e" transform="matrix(1,0,0,1,792,212) translate(150.03703703703704 73.02777777777777)"/><use xlink:href="#f" transform="matrix(1,0,0,1,792,212) translate(187.07407407407408 73.02777777777777)"/><path d="M950 360.96v42.2" stroke="#3a414a" fill="none"/><path d="M950.5 360.98h-1v-.52h1z" stroke="#3a414a" stroke-width=".05" fill="#3a414a"/><path d="M950 417.92l-4.64-14.27h9.28z" stroke="#3a414a" fill="#3a414a"/><path d="M840 426a6 6 0 0 1 6-6h208a6 6 0 0 1 6 6v68a6 6 0 0 1-6 6H846a6 6 0 0 1-6-6z" stroke="#3a414a" fill="#fff"/><use xlink:href="#g" transform="matrix(1,0,0,1,852,432) translate(18.462962962962962 21.27777777777778)"/><use xlink:href="#c" transform="matrix(1,0,0,1,852,432) translate(86.36419753086419 21.27777777777778)"/><use xlink:href="#h" transform="matrix(1,0,0,1,852,432) translate(98.70987654320987 21.27777777777778)"/><use xlink:href="#i" transform="matrix(1,0,0,1,852,432) translate(152.84567901234567 21.27777777777778)"/><use xlink:href="#j" transform="matrix(1,0,0,1,852,432) translate(28.52469135802471 47.94444444444444)"/><use xlink:href="#k" transform="matrix(1,0,0,1,852,432) translate(99.20370370370371 47.94444444444444)"/><path d="M45.43 546.46a6 6 0 0 1 6-6h188a6 6 0 0 1 6 6v92a6 6 0 0 1-6 6h-188a6 6 0 0 1-6-6z" stroke="#3a414a" fill="#fff"/><use xlink:href="#g" transform="matrix(1,0,0,1,57.433070866141634,552.4631886430647) translate(50.96296296296297 20.27777777777778)"/><use xlink:href="#l" transform="matrix(1,0,0,1,57.433070866141634,552.4631886430647) translate(118.8641975308642 20.27777777777778)"/><use xlink:href="#m" transform="matrix(1,0,0,1,57.433070866141634,552.4631886430647) translate(26.33333333333333 46.94444444444444)"/><use xlink:href="#n" transform="matrix(1,0,0,1,57.433070866141634,552.4631886430647) translate(116.39506172839506 46.94444444444444)"/><use xlink:href="#o" transform="matrix(1,0,0,1,57.433070866141634,552.4631886430647) translate(44.820987654320994 73.61111111111111)"/><use xlink:href="#p" transform="matrix(1,0,0,1,57.433070866141634,552.4631886430647) translate(97.9074074074074 73.61111111111111)"/><path d="M950 500.96v13.27a6 6 0 0 1-6 6H148.82a3.38 3.38 0 0 0-3.4 3.4" stroke="#3a414a" fill="none"/><path d="M950.5 500.98h-1v-.52h1z" stroke="#3a414a" stroke-width=".05" fill="#3a414a"/><path d="M145.43 538.38l-4.63-14.26h9.27z" stroke="#3a414a" fill="#3a414a"/><path d="M365.43 546.46a6 6 0 0 1 6-6h188a6 6 0 0 1 6 6v58a6 6 0 0 1-6 6h-188a6 6 0 0 1-6-6z" stroke="#3a414a" fill="#fff"/><use xlink:href="#q" transform="matrix(1,0,0,1,377.43307086614163,552.4631886430647) translate(26.33333333333333 17.77777777777778)"/><use xlink:href="#n" transform="matrix(1,0,0,1,377.43307086614163,552.4631886430647) translate(116.39506172839506 17.77777777777778)"/><use xlink:href="#o" transform="matrix(1,0,0,1,377.43307086614163,552.4631886430647) translate(39.296296296296305 44.44444444444444)"/><use xlink:href="#r" transform="matrix(1,0,0,1,377.43307086614163,552.4631886430647) translate(92.38271604938271 44.44444444444444)"/><path d="M1405.43 546.46a6 6 0 0 1 6-6h188a6 6 0 0 1 6 6v58a6 6 0 0 1-6 6h-188a6 6 0 0 1-6-6z" stroke="#3a414a" fill="#fff"/><use xlink:href="#q" transform="matrix(1,0,0,1,1417.4330708661416,552.4631886430647) translate(20.808641975308632 17.77777777777778)"/><use xlink:href="#s" transform="matrix(1,0,0,1,1417.4330708661416,552.4631886430647) translate(110.87037037037037 17.77777777777778)"/><use xlink:href="#o" transform="matrix(1,0,0,1,1417.4330708661416,552.4631886430647) translate(39.296296296296305 44.44444444444444)"/><use xlink:href="#t" transform="matrix(1,0,0,1,1417.4330708661416,552.4631886430647) translate(92.38271604938271 44.44444444444444)"/><path d="M950 500.96v13.27a6 6 0 0 1-6 6H468.82a3.38 3.38 0 0 0-3.4 3.4" stroke="#3a414a" fill="none"/><path d="M950.5 500.98h-1v-.52h1z" stroke="#3a414a" stroke-width=".05" fill="#3a414a"/><path d="M465.43 538.38l-4.63-14.26h9.27z" stroke="#3a414a" fill="#3a414a"/><path d="M270.43 650.46a6 6 0 0 1 6-6h188a6 6 0 0 1 6 6v108a6 6 0 0 1-6 6h-188a6 6 0 0 1-6-6z" stroke="#3a414a" fill="#fff"/><use xlink:href="#u" transform="matrix(1,0,0,1,282.43307086614163,656.4631886430647) translate(6.950617283950621 38.77777777777778)"/><use xlink:href="#c" transform="matrix(1,0,0,1,282.43307086614163,656.4631886430647) translate(74.85185185185185 38.77777777777778)"/><use xlink:href="#v" transform="matrix(1,0,0,1,282.43307086614163,656.4631886430647) translate(87.19753086419753 38.77777777777778)"/><use xlink:href="#w" transform="matrix(1,0,0,1,282.43307086614163,656.4631886430647) translate(130.8395061728395 38.77777777777778)"/><use xlink:href="#x" transform="matrix(1,0,0,1,282.43307086614163,656.4631886430647) translate(49.111111111111114 65.44444444444446)"/><use xlink:href="#y" transform="matrix(1,0,0,1,282.43307086614163,656.4631886430647) translate(102.19753086419752 65.44444444444446)"/><path d="M845.43 906a6 6 0 0 1 6-6h208a6 6 0 0 1 6 6v92a6 6 0 0 1-6 6h-208a6 6 0 0 1-6-6z" stroke="#3a414a" fill="#fff"/><use xlink:href="#a" transform="matrix(1,0,0,1,857.4330708661416,912) translate(23.370370370370367 20.27777777777778)"/><use xlink:href="#z" transform="matrix(1,0,0,1,857.4330708661416,912) translate(29.543209876543205 20.27777777777778)"/><use xlink:href="#A" transform="matrix(1,0,0,1,857.4330708661416,912) translate(78.8641975308642 20.27777777777778)"/><use xlink:href="#B" transform="matrix(1,0,0,1,857.4330708661416,912) translate(147.93827160493828 20.27777777777778)"/><use xlink:href="#C" transform="matrix(1,0,0,1,857.4330708661416,912) translate(1.7962962962963047 46.94444444444444)"/><use xlink:href="#e" transform="matrix(1,0,0,1,857.4330708661416,912) translate(89.32716049382717 46.94444444444444)"/><use xlink:href="#D" transform="matrix(1,0,0,1,857.4330708661416,912) translate(126.3641975308642 46.94444444444444)"/><use xlink:href="#E" transform="matrix(1,0,0,1,857.4330708661416,912) translate(42.50617283950617 73.61111111111111)"/><path d="M145.43 645.43V854a6 6 0 0 0 6 6h798a6 6 0 0 1 6 6v17.15" stroke="#3a414a" fill="none"/><path d="M145.93 645.44h-1v-.5h1z" stroke="#3a414a" stroke-width=".05" fill="#3a414a"/><path d="M955.43 897.92l-4.63-14.27h9.27z" stroke="#3a414a" fill="#3a414a"/><path d="M465.43 611.43v10.03a6 6 0 0 1-6 6H370.6a.15.15 0 0 0-.17.16" stroke="#3a414a" fill="none"/><path d="M465.93 611.44h-1v-.5h1z" stroke="#3a414a" stroke-width=".05" fill="#3a414a"/><path d="M370.43 642.38l-4.63-14.26h9.27z" stroke="#3a414a" fill="#3a414a"/><path d="M370.43 765.43v60.8a6 6 0 0 0 6 6h573a6 6 0 0 1 6 6v44.92" stroke="#3a414a" fill="none"/><path d="M370.93 765.44h-1v-.5h1z" stroke="#3a414a" stroke-width=".05" fill="#3a414a"/><path d="M955.43 897.92l-4.63-14.27h9.27z" stroke="#3a414a" fill="#3a414a"/><path d="M485.43 650.46a6 6 0 0 1 6-6h188a6 6 0 0 1 6 6v108a6 6 0 0 1-6 6h-188a6 6 0 0 1-6-6z" stroke="#3a414a" fill="#fff"/><use xlink:href="#F" transform="matrix(1,0,0,1,497.43307086614163,656.4631886430647) translate(2.3518518518518476 26.77777777777778)"/><use xlink:href="#c" transform="matrix(1,0,0,1,497.43307086614163,656.4631886430647) translate(70.25308641975307 26.77777777777778)"/><use xlink:href="#v" transform="matrix(1,0,0,1,497.43307086614163,656.4631886430647) translate(82.59876543209876 26.77777777777778)"/><use xlink:href="#G" transform="matrix(1,0,0,1,497.43307086614163,656.4631886430647) translate(126.24074074074073 26.77777777777778)"/><use xlink:href="#H" transform="matrix(1,0,0,1,497.43307086614163,656.4631886430647) translate(10.592592592592595 53.44444444444445)"/><use xlink:href="#x" transform="matrix(1,0,0,1,497.43307086614163,656.4631886430647) translate(54.97530864197531 53.44444444444445)"/><use xlink:href="#I" transform="matrix(1,0,0,1,497.43307086614163,656.4631886430647) translate(108.06172839506172 53.44444444444445)"/><use xlink:href="#J" transform="matrix(1,0,0,1,497.43307086614163,656.4631886430647) translate(138.92592592592592 53.44444444444445)"/><use xlink:href="#K" transform="matrix(1,0,0,1,497.43307086614163,656.4631886430647) translate(152.44444444444446 53.44444444444445)"/><use xlink:href="#L" transform="matrix(1,0,0,1,497.43307086614163,656.4631886430647) translate(18.925925925925924 80.11111111111111)"/><use xlink:href="#M" transform="matrix(1,0,0,1,497.43307086614163,656.4631886430647) translate(78.12345679012346 80.11111111111111)"/><path d="M465.43 611.43v10.03a6 6 0 0 0 6 6h113.85a.15.15 0 0 1 .15.16" stroke="#3a414a" fill="none"/><path d="M465.93 611.44h-1v-.5h1z" stroke="#3a414a" stroke-width=".05" fill="#3a414a"/><path d="M585.43 642.38l-4.63-14.26h9.27z" stroke="#3a414a" fill="#3a414a"/><path d="M585.43 765.43v60.8a6 6 0 0 0 6 6h358a6 6 0 0 1 6 6v44.92" stroke="#3a414a" fill="none"/><path d="M585.93 765.44h-1v-.5h1z" stroke="#3a414a" stroke-width=".05" fill="#3a414a"/><path d="M955.43 897.92l-4.63-14.27h9.27z" stroke="#3a414a" fill="#3a414a"/><path d="M725.43 650.46a6 6 0 0 1 6-6h188a6 6 0 0 1 6 6v92a6 6 0 0 1-6 6h-188a6 6 0 0 1-6-6z" stroke="#3a414a" fill="#fff"/><use xlink:href="#N" transform="matrix(1,0,0,1,737.4330708661416,656.4631886430647) translate(5.932098765432102 17.77777777777778)"/><use xlink:href="#c" transform="matrix(1,0,0,1,737.4330708661416,656.4631886430647) translate(73.83333333333333 17.77777777777778)"/><use xlink:href="#O" transform="matrix(1,0,0,1,737.4330708661416,656.4631886430647) translate(86.17901234567901 17.77777777777778)"/><use xlink:href="#P" transform="matrix(1,0,0,1,737.4330708661416,656.4631886430647) translate(16.858024691358025 44.44444444444444)"/><use xlink:href="#Q" transform="matrix(1,0,0,1,737.4330708661416,656.4631886430647) translate(39.01851851851852 44.44444444444444)"/><use xlink:href="#I" transform="matrix(1,0,0,1,737.4330708661416,656.4631886430647) translate(74.82098765432099 44.44444444444444)"/><use xlink:href="#R" transform="matrix(1,0,0,1,737.4330708661416,656.4631886430647) translate(105.68518518518519 44.44444444444444)"/><use xlink:href="#S" transform="matrix(1,0,0,1,737.4330708661416,656.4631886430647) translate(42.81481481481481 71.11111111111111)"/><use xlink:href="#T" transform="matrix(1,0,0,1,737.4330708661416,656.4631886430647) translate(83.49382716049382 71.11111111111111)"/><use xlink:href="#U" transform="matrix(1,0,0,1,737.4330708661416,656.4631886430647) translate(88 97.77777777777777)"/><path d="M945.43 650.46a6 6 0 0 1 6-6h188a6 6 0 0 1 6 6v108a6 6 0 0 1-6 6h-188a6 6 0 0 1-6-6z" stroke="#3a414a" fill="#fff"/><use xlink:href="#V" transform="matrix(1,0,0,1,957.4330708661419,656.4631886430647) translate(5.932098765432102 17.77777777777778)"/><use xlink:href="#c" transform="matrix(1,0,0,1,957.4330708661419,656.4631886430647) translate(73.83333333333333 17.77777777777778)"/><use xlink:href="#O" transform="matrix(1,0,0,1,957.4330708661419,656.4631886430647) translate(86.17901234567901 17.77777777777778)"/><use xlink:href="#P" transform="matrix(1,0,0,1,957.4330708661419,656.4631886430647) translate(14.141975308641975 44.44444444444444)"/><use xlink:href="#Q" transform="matrix(1,0,0,1,957.4330708661419,656.4631886430647) translate(36.30246913580247 44.44444444444444)"/><use xlink:href="#I" transform="matrix(1,0,0,1,957.4330708661419,656.4631886430647) translate(72.10493827160494 44.44444444444444)"/><use xlink:href="#W" transform="matrix(1,0,0,1,957.4330708661419,656.4631886430647) translate(102.96913580246914 44.44444444444444)"/><use xlink:href="#X" transform="matrix(1,0,0,1,957.4330708661419,656.4631886430647) translate(9.851851851851862 71.11111111111111)"/><use xlink:href="#c" transform="matrix(1,0,0,1,957.4330708661419,656.4631886430647) translate(76.76543209876543 71.11111111111111)"/><use xlink:href="#Y" transform="matrix(1,0,0,1,957.4330708661419,656.4631886430647) translate(89.11111111111111 71.11111111111111)"/><use xlink:href="#Z" transform="matrix(1,0,0,1,957.4330708661419,656.4631886430647) translate(115.5925925925926 71.11111111111111)"/><use xlink:href="#M" transform="matrix(1,0,0,1,957.4330708661419,656.4631886430647) translate(48.52469135802469 97.77777777777777)"/><path d="M825.43 749.43v68.8a6 6 0 0 0 6 6h118a6 6 0 0 1 6 6v52.92" stroke="#3a414a" fill="none"/><path d="M825.93 749.44h-1v-.5h1z" stroke="#3a414a" stroke-width=".05" fill="#3a414a"/><path d="M955.43 897.92l-4.63-14.27h9.27z" stroke="#3a414a" fill="#3a414a"/><path d="M1045.43 765.43v60.8a6 6 0 0 1-6 6h-78a6 6 0 0 0-6 6v44.92" stroke="#3a414a" fill="none"/><path d="M1045.93 765.44h-1v-.5h1z" stroke="#3a414a" stroke-width=".05" fill="#3a414a"/><path d="M955.43 897.92l-4.63-14.27h9.27z" stroke="#3a414a" fill="#3a414a"/><path d="M845.43 546.46a6 6 0 0 1 6-6h188a6 6 0 0 1 6 6v58a6 6 0 0 1-6 6h-188a6 6 0 0 1-6-6z" stroke="#3a414a" fill="#fff"/><use xlink:href="#q" transform="matrix(1,0,0,1,857.4330708661416,552.4631886430647) translate(20.808641975308632 17.77777777777778)"/><use xlink:href="#s" transform="matrix(1,0,0,1,857.4330708661416,552.4631886430647) translate(110.87037037037037 17.77777777777778)"/><use xlink:href="#o" transform="matrix(1,0,0,1,857.4330708661416,552.4631886430647) translate(44.820987654320994 44.44444444444444)"/><use xlink:href="#aa" transform="matrix(1,0,0,1,857.4330708661416,552.4631886430647) translate(97.9074074074074 44.44444444444444)"/><path d="M945.43 611.43v10.03a6 6 0 0 1-6 6H825.6a.15.15 0 0 0-.17.16" stroke="#3a414a" fill="none"/><path d="M945.93 611.44h-1v-.5h1z" stroke="#3a414a" stroke-width=".05" fill="#3a414a"/><path d="M825.43 642.38l-4.63-14.26h9.27z" stroke="#3a414a" fill="#3a414a"/><path d="M945.43 611.43v10.03a6 6 0 0 0 6 6h93.85a.15.15 0 0 1 .15.16" stroke="#3a414a" fill="none"/><path d="M945.93 611.44h-1v-.5h1z" stroke="#3a414a" stroke-width=".05" fill="#3a414a"/><path d="M1045.43 642.38l-4.63-14.26h9.27z" stroke="#3a414a" fill="#3a414a"/><path d="M950 500.96v17a2.28 2.28 0 0 1-2.28 2.27 2.28 2.28 0 0 0-2.3 2.3v1.1" stroke="#3a414a" fill="none"/><path d="M950.5 500.98h-1v-.52h1z" stroke="#3a414a" stroke-width=".05" fill="#3a414a"/><path d="M945.43 538.38l-4.63-14.26h9.27z" stroke="#3a414a" fill="#3a414a"/><path d="M1185.43 650.46a6 6 0 0 1 6-6h188a6 6 0 0 1 6 6v118.67a6 6 0 0 1-6 6h-188a6 6 0 0 1-6-6z" stroke="#3a414a" fill="#fff"/><g><use xlink:href="#ab" transform="matrix(1,0,0,1,1197.4330708661416,656.4631886430647) translate(5.932098765432102 21.12152777777778)"/><use xlink:href="#c" transform="matrix(1,0,0,1,1197.4330708661416,656.4631886430647) translate(73.83333333333333 21.12152777777778)"/><use xlink:href="#O" transform="matrix(1,0,0,1,1197.4330708661416,656.4631886430647) translate(86.17901234567901 21.12152777777778)"/><use xlink:href="#P" transform="matrix(1,0,0,1,1197.4330708661416,656.4631886430647) translate(16.858024691358025 47.78819444444444)"/><use xlink:href="#Q" transform="matrix(1,0,0,1,1197.4330708661416,656.4631886430647) translate(39.01851851851852 47.78819444444444)"/><use xlink:href="#I" transform="matrix(1,0,0,1,1197.4330708661416,656.4631886430647) translate(74.82098765432099 47.78819444444444)"/><use xlink:href="#R" transform="matrix(1,0,0,1,1197.4330708661416,656.4631886430647) translate(105.68518518518519 47.78819444444444)"/><use xlink:href="#S" transform="matrix(1,0,0,1,1197.4330708661416,656.4631886430647) translate(39.72839506172839 74.45486111111111)"/><use xlink:href="#ac" transform="matrix(1,0,0,1,1197.4330708661416,656.4631886430647) translate(80.40740740740742 74.45486111111111)"/><use xlink:href="#l" transform="matrix(1,0,0,1,1197.4330708661416,656.4631886430647) translate(130.0987654320988 74.45486111111111)"/><use xlink:href="#ad" transform="matrix(1,0,0,1,1197.4330708661416,656.4631886430647) translate(22.629629629629633 101.12152777777777)"/><use xlink:href="#x" transform="matrix(1,0,0,1,1197.4330708661416,656.4631886430647) translate(67.01234567901236 101.12152777777777)"/><use xlink:href="#p" transform="matrix(1,0,0,1,1197.4330708661416,656.4631886430647) translate(120.09876543209876 101.12152777777777)"/></g><path d="M1625.43 650.46a6 6 0 0 1 6-6h188a6 6 0 0 1 6 6v172a6 6 0 0 1-6 6h-188a6 6 0 0 1-6-6z" stroke="#3a414a" fill="#fff"/><g><use xlink:href="#ae" transform="matrix(1,0,0,1,1637.4330708661416,656.4631886430647) translate(9.666666666666671 22.77777777777778)"/><use xlink:href="#af" transform="matrix(1,0,0,1,1637.4330708661416,656.4631886430647) translate(77.5679012345679 22.77777777777778)"/><use xlink:href="#ag" transform="matrix(1,0,0,1,1637.4330708661416,656.4631886430647) translate(160.1604938271605 22.77777777777778)"/><use xlink:href="#ah" transform="matrix(1,0,0,1,1637.4330708661416,656.4631886430647) translate(1.6419753086419604 49.44444444444444)"/><use xlink:href="#ai" transform="matrix(1,0,0,1,1637.4330708661416,656.4631886430647) translate(91.7037037037037 49.44444444444444)"/><use xlink:href="#aj" transform="matrix(1,0,0,1,1637.4330708661416,656.4631886430647) translate(113.86419753086419 49.44444444444444)"/><use xlink:href="#ak" transform="matrix(1,0,0,1,1637.4330708661416,656.4631886430647) translate(149.66666666666669 49.44444444444444)"/><use xlink:href="#al" transform="matrix(1,0,0,1,1637.4330708661416,656.4631886430647) translate(18.925925925925938 76.11111111111111)"/><use xlink:href="#am" transform="matrix(1,0,0,1,1637.4330708661416,656.4631886430647) translate(83.98765432098766 76.11111111111111)"/><use xlink:href="#an" transform="matrix(1,0,0,1,1637.4330708661416,656.4631886430647) translate(150.9012345679012 76.11111111111111)"/><use xlink:href="#ao" transform="matrix(1,0,0,1,1637.4330708661416,656.4631886430647) translate(6.641975308641975 102.77777777777777)"/><use xlink:href="#ap" transform="matrix(1,0,0,1,1637.4330708661416,656.4631886430647) translate(59.728395061728385 102.77777777777777)"/><use xlink:href="#aq" transform="matrix(1,0,0,1,1637.4330708661416,656.4631886430647) translate(99.17283950617283 102.77777777777777)"/><use xlink:href="#ar" transform="matrix(1,0,0,1,1637.4330708661416,656.4631886430647) translate(125.03703703703704 102.77777777777777)"/><use xlink:href="#as" transform="matrix(1,0,0,1,1637.4330708661416,656.4631886430647) translate(6.91975308641976 129.44444444444446)"/><use xlink:href="#at" transform="matrix(1,0,0,1,1637.4330708661416,656.4631886430647) translate(79.75925925925927 129.44444444444446)"/><use xlink:href="#au" transform="matrix(1,0,0,1,1637.4330708661416,656.4631886430647) translate(148.7716049382716 129.44444444444446)"/><use xlink:href="#av" transform="matrix(1,0,0,1,1637.4330708661416,656.4631886430647) translate(20.160493827160494 156.11111111111111)"/><use xlink:href="#aw" transform="matrix(1,0,0,1,1637.4330708661416,656.4631886430647) translate(76.88888888888889 156.11111111111111)"/></g><path d="M1405.43 650.46a6 6 0 0 1 6-6h188a6 6 0 0 1 6 6v172a6 6 0 0 1-6 6h-188a6 6 0 0 1-6-6z" stroke="#3a414a" fill="#fff"/><g><use xlink:href="#ax" transform="matrix(1,0,0,1,1417.4330708661416,656.4631886430647) translate(5.932098765432102 22.77777777777778)"/><use xlink:href="#c" transform="matrix(1,0,0,1,1417.4330708661416,656.4631886430647) translate(73.83333333333333 22.77777777777778)"/><use xlink:href="#O" transform="matrix(1,0,0,1,1417.4330708661416,656.4631886430647) translate(86.17901234567901 22.77777777777778)"/><use xlink:href="#P" transform="matrix(1,0,0,1,1417.4330708661416,656.4631886430647) translate(16.858024691358025 49.44444444444444)"/><use xlink:href="#Q" transform="matrix(1,0,0,1,1417.4330708661416,656.4631886430647) translate(39.01851851851852 49.44444444444444)"/><use xlink:href="#I" transform="matrix(1,0,0,1,1417.4330708661416,656.4631886430647) translate(74.82098765432099 49.44444444444444)"/><use xlink:href="#R" transform="matrix(1,0,0,1,1417.4330708661416,656.4631886430647) translate(105.68518518518519 49.44444444444444)"/><use xlink:href="#S" transform="matrix(1,0,0,1,1417.4330708661416,656.4631886430647) translate(39.72839506172839 76.11111111111111)"/><use xlink:href="#ac" transform="matrix(1,0,0,1,1417.4330708661416,656.4631886430647) translate(80.40740740740742 76.11111111111111)"/><use xlink:href="#l" transform="matrix(1,0,0,1,1417.4330708661416,656.4631886430647) translate(130.0987654320988 76.11111111111111)"/><use xlink:href="#ay" transform="matrix(1,0,0,1,1417.4330708661416,656.4631886430647) translate(15.561728395061735 102.77777777777777)"/><use xlink:href="#H" transform="matrix(1,0,0,1,1417.4330708661416,656.4631886430647) translate(69.14197530864199 102.77777777777777)"/><use xlink:href="#az" transform="matrix(1,0,0,1,1417.4330708661416,656.4631886430647) translate(113.5246913580247 102.77777777777777)"/><use xlink:href="#aA" transform="matrix(1,0,0,1,1417.4330708661416,656.4631886430647) translate(29.759259259259267 129.44444444444446)"/><use xlink:href="#Y" transform="matrix(1,0,0,1,1417.4330708661416,656.4631886430647) translate(69.20370370370371 129.44444444444446)"/><use xlink:href="#Z" transform="matrix(1,0,0,1,1417.4330708661416,656.4631886430647) translate(95.68518518518519 129.44444444444446)"/><use xlink:href="#M" transform="matrix(1,0,0,1,1417.4330708661416,656.4631886430647) translate(48.52469135802469 156.11111111111111)"/></g><path d="M1285.43 776.1v55.46a6 6 0 0 1-6 6h-318a6 6 0 0 0-6 6v39.6" stroke="#3a414a" fill="none"/><path d="M1285.93 776.1h-1v-.5h1z" stroke="#3a414a" stroke-width=".05" fill="#3a414a"/><path d="M955.43 897.92l-4.63-14.27h9.27z" stroke="#3a414a" fill="#3a414a"/><path d="M1505.43 829.43V854a6 6 0 0 1-6 6h-538a6 6 0 0 0-6 6v17.15" stroke="#3a414a" fill="none"/><path d="M1505.93 829.44h-1v-.5h1z" stroke="#3a414a" stroke-width=".05" fill="#3a414a"/><path d="M955.43 897.92l-4.63-14.27h9.27z" stroke="#3a414a" fill="#3a414a"/><path d="M1505.43 611.43v10.03a6 6 0 0 1-6 6H1285.6a.15.15 0 0 0-.17.16" stroke="#3a414a" fill="none"/><path d="M1505.93 611.44h-1v-.5h1z" stroke="#3a414a" stroke-width=".05" fill="#3a414a"/><path d="M1285.43 642.38l-4.63-14.26h9.27z" stroke="#3a414a" fill="#3a414a"/><path d="M1505.43 611.43v10.03a6 6 0 0 0 6 6h213.85a.15.15 0 0 1 .15.16" stroke="#3a414a" fill="none"/><path d="M1505.93 611.44h-1v-.5h1z" stroke="#3a414a" stroke-width=".05" fill="#3a414a"/><path d="M1725.43 642.38l-4.63-14.26h9.27z" stroke="#3a414a" fill="#3a414a"/><path d="M1505.43 611.43v16.2" stroke="#3a414a" fill="none"/><path d="M1505.93 611.44h-1v-.5h1z" stroke="#3a414a" stroke-width=".05" fill="#3a414a"/><path d="M1505.43 642.38l-4.63-14.26h9.27z" stroke="#3a414a" fill="#3a414a"/><path d="M950 500.96v13.27a6 6 0 0 0 6 6h546.05a3.38 3.38 0 0 1 3.38 3.4" stroke="#3a414a" fill="none"/><path d="M950.5 500.98h-1v-.52h1z" stroke="#3a414a" stroke-width=".05" fill="#3a414a"/><path d="M1505.43 538.38l-4.63-14.26h9.27z" stroke="#3a414a" fill="#3a414a"/><path d="M845.43 1026a6 6 0 0 1 6-6h208a6 6 0 0 1 6 6v76a6 6 0 0 1-6 6h-208a6 6 0 0 1-6-6z" stroke="#3a414a" fill="#fff"/><g><use xlink:href="#aB" transform="matrix(1,0,0,1,857.4330708661416,1032) translate(36.95061728395062 21.77777777777778)"/><use xlink:href="#c" transform="matrix(1,0,0,1,857.4330708661416,1032) translate(55.46913580246914 21.77777777777778)"/><use xlink:href="#aC" transform="matrix(1,0,0,1,857.4330708661416,1032) translate(67.81481481481481 21.77777777777778)"/><use xlink:href="#aD" transform="matrix(1,0,0,1,857.4330708661416,1032) translate(48.06172839506173 48.44444444444444)"/></g><path d="M700 1166a6 6 0 0 1 6-6h208a6 6 0 0 1 6 6v76a6 6 0 0 1-6 6H706a6 6 0 0 1-6-6z" stroke="#3a414a" fill="#fff"/><g><use xlink:href="#aE" transform="matrix(1,0,0,1,712,1172) translate(37.29012345679013 21.77777777777778)"/><use xlink:href="#c" transform="matrix(1,0,0,1,712,1172) translate(80.5 21.77777777777778)"/><use xlink:href="#aF" transform="matrix(1,0,0,1,712,1172) translate(92.84567901234568 21.77777777777778)"/><use xlink:href="#aG" transform="matrix(1,0,0,1,712,1172) translate(127.84567901234568 21.77777777777778)"/><use xlink:href="#aH" transform="matrix(1,0,0,1,712,1172) translate(44.141975308641975 48.44444444444444)"/></g><path d="M1000 1166a6 6 0 0 1 6-6h208a6 6 0 0 1 6 6v76a6 6 0 0 1-6 6h-208a6 6 0 0 1-6-6z" stroke="#3a414a" fill="#fff"/><g><use xlink:href="#aI" transform="matrix(1,0,0,1,1012,1172) translate(35.25308641975309 37.77777777777778)"/><use xlink:href="#c" transform="matrix(1,0,0,1,1012,1172) translate(78.46296296296296 37.77777777777778)"/><use xlink:href="#aJ" transform="matrix(1,0,0,1,1012,1172) translate(90.80864197530865 37.77777777777778)"/><use xlink:href="#aK" transform="matrix(1,0,0,1,1012,1172) translate(128.21604938271605 37.77777777777778)"/></g><path d="M845.43 1306a6 6 0 0 1 6-6h208a6 6 0 0 1 6 6v76a6 6 0 0 1-6 6h-208a6 6 0 0 1-6-6z" stroke="#3a414a" fill="#fff"/><g><use xlink:href="#aL" transform="matrix(1,0,0,1,857.4330708661416,1312) translate(12.259259259259267 21.77777777777778)"/><use xlink:href="#c" transform="matrix(1,0,0,1,857.4330708661416,1312) translate(30.777777777777786 21.77777777777778)"/><use xlink:href="#aM" transform="matrix(1,0,0,1,857.4330708661416,1312) translate(43.12345679012346 21.77777777777778)"/><use xlink:href="#aN" transform="matrix(1,0,0,1,857.4330708661416,1312) translate(140.53086419753086 21.77777777777778)"/><use xlink:href="#aO" transform="matrix(1,0,0,1,857.4330708661416,1312) translate(40.71604938271605 48.44444444444444)"/><use xlink:href="#aP" transform="matrix(1,0,0,1,857.4330708661416,1312) translate(66.58024691358025 48.44444444444444)"/></g><path d="M845.43 1446a6 6 0 0 1 6-6h208a6 6 0 0 1 6 6v76a6 6 0 0 1-6 6h-208a6 6 0 0 1-6-6z" stroke="#3a414a" fill="#fff"/><g><use xlink:href="#aQ" transform="matrix(1,0,0,1,857.4330708661416,1452) translate(27.074074074074076 21.77777777777778)"/><use xlink:href="#c" transform="matrix(1,0,0,1,857.4330708661416,1452) translate(45.592592592592595 21.77777777777778)"/><use xlink:href="#aR" transform="matrix(1,0,0,1,857.4330708661416,1452) translate(57.93827160493827 21.77777777777778)"/><use xlink:href="#aS" transform="matrix(1,0,0,1,857.4330708661416,1452) translate(133.1851851851852 21.77777777777778)"/><use xlink:href="#aT" transform="matrix(1,0,0,1,857.4330708661416,1452) translate(150.40740740740742 21.77777777777778)"/><use xlink:href="#aU" transform="matrix(1,0,0,1,857.4330708661416,1452) translate(65.28395061728395 48.44444444444444)"/></g><path d="M845.43 1586a6 6 0 0 1 6-6h208a6 6 0 0 1 6 6v76a6 6 0 0 1-6 6h-208a6 6 0 0 1-6-6z" stroke="#3a414a" fill="#fff"/><g><use xlink:href="#aV" transform="matrix(1,0,0,1,857.4330708661416,1592) translate(11.641975308641975 37.77777777777778)"/><use xlink:href="#c" transform="matrix(1,0,0,1,857.4330708661416,1592) translate(30.160493827160494 37.77777777777778)"/><use xlink:href="#aW" transform="matrix(1,0,0,1,857.4330708661416,1592) translate(42.50617283950617 37.77777777777778)"/><use xlink:href="#aX" transform="matrix(1,0,0,1,857.4330708661416,1592) translate(105.34567901234567 37.77777777777778)"/><use xlink:href="#aY" transform="matrix(1,0,0,1,857.4330708661416,1592) translate(148.55555555555554 37.77777777777778)"/></g><path d="M955.43 1108.96V1128a6 6 0 0 1-6 6H816a6 6 0 0 0-6 6v3.15" stroke="#3a414a" fill="none"/><path d="M955.93 1108.98h-1v-.52h1z" stroke="#3a414a" stroke-width=".05" fill="#3a414a"/><path d="M810 1157.92l-4.64-14.27h9.28z" stroke="#3a414a" fill="#3a414a"/><path d="M955.43 1108.96V1128a6 6 0 0 0 6 6H1104a6 6 0 0 1 6 6v3.15" stroke="#3a414a" fill="none"/><path d="M955.93 1108.98h-1v-.52h1z" stroke="#3a414a" stroke-width=".05" fill="#3a414a"/><path d="M1110 1157.92l-4.64-14.27h9.28z" stroke="#3a414a" fill="#3a414a"/><path d="M1110 1248.96V1268a6 6 0 0 1-6 6H961.43a6 6 0 0 0-6 6v3.15" stroke="#3a414a" fill="none"/><path d="M1110.5 1248.98h-1v-.52h1z" stroke="#3a414a" stroke-width=".05" fill="#3a414a"/><path d="M955.43 1297.92l-4.63-14.27h9.27z" stroke="#3a414a" fill="#3a414a"/><path d="M810 1248.96V1268a6 6 0 0 0 6 6h133.43a6 6 0 0 1 6 6v3.15" stroke="#3a414a" fill="none"/><path d="M810.5 1248.98h-1v-.52h1z" stroke="#3a414a" stroke-width=".05" fill="#3a414a"/><path d="M955.43 1297.92l-4.63-14.27h9.27z" stroke="#3a414a" fill="#3a414a"/><path d="M955.43 1388.96v34.2" stroke="#3a414a" fill="none"/><path d="M955.93 1388.98h-1v-.52h1z" stroke="#3a414a" stroke-width=".05" fill="#3a414a"/><path d="M955.43 1437.92l-4.63-14.27h9.27z" stroke="#3a414a" fill="#3a414a"/><path d="M955.43 1528.96v34.2" stroke="#3a414a" fill="none"/><path d="M955.93 1528.98h-1v-.52h1z" stroke="#3a414a" stroke-width=".05" fill="#3a414a"/><path d="M955.43 1577.92l-4.63-14.27h9.27z" stroke="#3a414a" fill="#3a414a"/><defs><path fill="#3a414a" d="M27 0v-27h64v-190l-56 39v-29l58-41h29v221h61V0H27" id="aZ"/><use transform="matrix(0.06172839506172839,0,0,0.06172839506172839,0,0)" xlink:href="#aZ" id="b"/><path fill="#3a414a" d="M0 4l72-265h28L28 4H0" id="ba"/><use transform="matrix(0.06172839506172839,0,0,0.06172839506172839,0,0)" xlink:href="#ba" id="c"/><path fill="#3a414a" d="M140-251c81 0 123 46 123 126C263-46 219 4 140 4 59 4 17-45 17-125s42-126 123-126zm0 227c63 0 89-41 89-101s-29-99-89-99c-61 0-89 39-89 99S79-25 140-24" id="bb"/><path fill="#3a414a" d="M115-194c55 1 70 41 70 98S169 2 115 4C84 4 66-9 55-30l1 105H24l-1-265h31l2 30c10-21 28-34 59-34zm-8 174c40 0 45-34 45-75s-6-73-45-74c-42 0-51 32-51 76 0 43 10 73 51 73" id="bc"/><path fill="#3a414a" d="M100-194c63 0 86 42 84 106H49c0 40 14 67 53 68 26 1 43-12 49-29l28 8c-11 28-37 45-77 45C44 4 14-33 15-96c1-61 26-98 85-98zm52 81c6-60-76-77-97-28-3 7-6 17-6 28h103" id="bd"/><path fill="#3a414a" d="M117-194c89-4 53 116 60 194h-32v-121c0-31-8-49-39-48C34-167 62-67 57 0H25l-1-190h30c1 10-1 24 2 32 11-22 29-35 61-36" id="be"/><path fill="#3a414a" d="M24-231v-30h32v30H24zM24 0v-190h32V0H24" id="bf"/><path fill="#3a414a" d="M177-190C167-65 218 103 67 71c-23-6-38-20-44-43l32-5c15 47 100 32 89-28v-30C133-14 115 1 83 1 29 1 15-40 15-95c0-56 16-97 71-98 29-1 48 16 59 35 1-10 0-23 2-32h30zM94-22c36 0 50-32 50-73 0-42-14-75-50-75-39 0-46 34-46 75s6 73 46 73" id="bg"/><g id="d"><use transform="matrix(0.06172839506172839,0,0,0.06172839506172839,0,0)" xlink:href="#bb"/><use transform="matrix(0.06172839506172839,0,0,0.06172839506172839,17.28395061728395,0)" xlink:href="#bc"/><use transform="matrix(0.06172839506172839,0,0,0.06172839506172839,29.629629629629626,0)" xlink:href="#bd"/><use transform="matrix(0.06172839506172839,0,0,0.06172839506172839,41.9753086419753,0)" xlink:href="#be"/><use transform="matrix(0.06172839506172839,0,0,0.06172839506172839,54.32098765432098,0)" xlink:href="#bf"/><use transform="matrix(0.06172839506172839,0,0,0.06172839506172839,59.197530864197525,0)" xlink:href="#be"/><use transform="matrix(0.06172839506172839,0,0,0.06172839506172839,71.5432098765432,0)" xlink:href="#bg"/></g><path fill="#3a414a" d="M59-47c-2 24 18 29 38 22v24C64 9 27 4 27-40v-127H5v-23h24l9-43h21v43h35v23H59v120" id="bh"/><path fill="#3a414a" d="M106-169C34-169 62-67 57 0H25v-261h32l-1 103c12-21 28-36 61-36 89 0 53 116 60 194h-32v-121c2-32-8-49-39-48" id="bi"/><g id="e"><use transform="matrix(0.06172839506172839,0,0,0.06172839506172839,0,0)" xlink:href="#bh"/><use transform="matrix(0.06172839506172839,0,0,0.06172839506172839,6.172839506172839,0)" xlink:href="#bi"/><use transform="matrix(0.06172839506172839,0,0,0.06172839506172839,18.51851851851852,0)" xlink:href="#bd"/></g><path fill="#3a414a" d="M141-36C126-15 110 5 73 4 37 3 15-17 15-53c-1-64 63-63 125-63 3-35-9-54-41-54-24 1-41 7-42 31l-33-3c5-37 33-52 76-52 45 0 72 20 72 64v82c-1 20 7 32 28 27v20c-31 9-61-2-59-35zM48-53c0 20 12 33 32 33 41-3 63-29 60-74-43 2-92-5-92 41" id="bj"/><path fill="#3a414a" d="M24 0v-261h32V0H24" id="bk"/><path fill="#3a414a" d="M96-169c-40 0-48 33-48 73s9 75 48 75c24 0 41-14 43-38l32 2c-6 37-31 61-74 61-59 0-76-41-82-99-10-93 101-131 147-64 4 7 5 14 7 22l-32 3c-4-21-16-35-41-35" id="bl"/><path fill="#3a414a" d="M100-194c62-1 85 37 85 99 1 63-27 99-86 99S16-35 15-95c0-66 28-99 85-99zM99-20c44 1 53-31 53-75 0-43-8-75-51-75s-53 32-53 75 10 74 51 75" id="bm"/><g id="f"><use transform="matrix(0.06172839506172839,0,0,0.06172839506172839,0,0)" xlink:href="#bj"/><use transform="matrix(0.06172839506172839,0,0,0.06172839506172839,12.345679012345679,0)" xlink:href="#bc"/><use transform="matrix(0.06172839506172839,0,0,0.06172839506172839,24.691358024691358,0)" xlink:href="#bc"/><use transform="matrix(0.06172839506172839,0,0,0.06172839506172839,37.03703703703704,0)" xlink:href="#bk"/><use transform="matrix(0.06172839506172839,0,0,0.06172839506172839,41.91358024691358,0)" xlink:href="#bf"/><use transform="matrix(0.06172839506172839,0,0,0.06172839506172839,46.79012345679013,0)" xlink:href="#bl"/><use transform="matrix(0.06172839506172839,0,0,0.06172839506172839,57.90123456790124,0)" xlink:href="#bj"/><use transform="matrix(0.06172839506172839,0,0,0.06172839506172839,70.24691358024693,0)" xlink:href="#bh"/><use transform="matrix(0.06172839506172839,0,0,0.06172839506172839,76.41975308641976,0)" xlink:href="#bf"/><use transform="matrix(0.06172839506172839,0,0,0.06172839506172839,81.2962962962963,0)" xlink:href="#bm"/><use transform="matrix(0.06172839506172839,0,0,0.06172839506172839,93.64197530864199,0)" xlink:href="#be"/></g><path fill="#3a414a" d="M101-251c82-7 93 87 43 132L82-64C71-53 59-42 53-27h129V0H18c2-99 128-94 128-182 0-28-16-43-45-43s-46 15-49 41l-32-3c6-41 34-60 81-64" id="bn"/><path fill="#3a414a" d="M-5 72V49h209v23H-5" id="bo"/><g id="g"><use transform="matrix(0.06172839506172839,0,0,0.06172839506172839,0,0)" xlink:href="#bn"/><use transform="matrix(0.06172839506172839,0,0,0.06172839506172839,12.345679012345679,0)" xlink:href="#bo"/><use transform="matrix(0.06172839506172839,0,0,0.06172839506172839,24.691358024691358,0)" xlink:href="#aZ"/><use transform="matrix(0.06172839506172839,0,0,0.06172839506172839,37.03703703703704,0)" xlink:href="#bo"/><use transform="matrix(0.06172839506172839,0,0,0.06172839506172839,49.382716049382715,0)" xlink:href="#aZ"/></g><path fill="#3a414a" d="M212-179c-10-28-35-45-73-45-59 0-87 40-87 99 0 60 29 101 89 101 43 0 62-24 78-52l27 14C228-24 195 4 139 4 59 4 22-46 18-125c-6-104 99-153 187-111 19 9 31 26 39 46" id="bp"/><path fill="#3a414a" d="M143 0L79-87 56-68V0H24v-261h32v163l83-92h37l-77 82L181 0h-38" id="bq"/><g id="h"><use transform="matrix(0.06172839506172839,0,0,0.06172839506172839,0,0)" xlink:href="#bp"/><use transform="matrix(0.06172839506172839,0,0,0.06172839506172839,15.987654320987653,0)" xlink:href="#bk"/><use transform="matrix(0.06172839506172839,0,0,0.06172839506172839,20.864197530864196,0)" xlink:href="#bf"/><use transform="matrix(0.06172839506172839,0,0,0.06172839506172839,25.74074074074074,0)" xlink:href="#bl"/><use transform="matrix(0.06172839506172839,0,0,0.06172839506172839,36.85185185185185,0)" xlink:href="#bq"/></g><g id="i"><use transform="matrix(0.06172839506172839,0,0,0.06172839506172839,0,0)" xlink:href="#bm"/><use transform="matrix(0.06172839506172839,0,0,0.06172839506172839,12.345679012345679,0)" xlink:href="#be"/></g><path fill="#3a414a" d="M109-170H84l-4-78h32zm-65 0H19l-4-78h33" id="br"/><path fill="#3a414a" d="M114-163C36-179 61-72 57 0H25l-1-190h30c1 12-1 29 2 39 6-27 23-49 58-41v29" id="bs"/><path fill="#3a414a" d="M85-194c31 0 48 13 60 33l-1-100h32l1 261h-30c-2-10 0-23-3-31C134-8 116 4 85 4 32 4 16-35 15-94c0-66 23-100 70-100zm9 24c-40 0-46 34-46 75 0 40 6 74 45 74 42 0 51-32 51-76 0-42-9-74-50-73" id="bt"/><g id="j"><use transform="matrix(0.06172839506172839,0,0,0.06172839506172839,0,0)" xlink:href="#br"/><use transform="matrix(0.06172839506172839,0,0,0.06172839506172839,7.8395061728395055,0)" xlink:href="#bb"/><use transform="matrix(0.06172839506172839,0,0,0.06172839506172839,25.123456790123456,0)" xlink:href="#bs"/><use transform="matrix(0.06172839506172839,0,0,0.06172839506172839,32.46913580246913,0)" xlink:href="#bt"/><use transform="matrix(0.06172839506172839,0,0,0.06172839506172839,44.81481481481481,0)" xlink:href="#bd"/><use transform="matrix(0.06172839506172839,0,0,0.06172839506172839,57.16049382716049,0)" xlink:href="#bs"/></g><g id="k"><use transform="matrix(0.06172839506172839,0,0,0.06172839506172839,0,0)" xlink:href="#bm"/><use transform="matrix(0.06172839506172839,0,0,0.06172839506172839,12.345679012345679,0)" xlink:href="#bc"/><use transform="matrix(0.06172839506172839,0,0,0.06172839506172839,24.691358024691358,0)" xlink:href="#bh"/><use transform="matrix(0.06172839506172839,0,0,0.06172839506172839,30.864197530864196,0)" xlink:href="#bf"/><use transform="matrix(0.06172839506172839,0,0,0.06172839506172839,35.74074074074074,0)" xlink:href="#bm"/><use transform="matrix(0.06172839506172839,0,0,0.06172839506172839,48.08641975308642,0)" xlink:href="#be"/><use transform="matrix(0.06172839506172839,0,0,0.06172839506172839,60.432098765432094,0)" xlink:href="#br"/></g><use transform="matrix(0.06172839506172839,0,0,0.06172839506172839,0,0)" xlink:href="#ba" id="l"/><path fill="#3a414a" d="M30 0v-248h33v221h125V0H30" id="bu"/><g id="m"><use transform="matrix(0.06172839506172839,0,0,0.06172839506172839,0,0)" xlink:href="#bu"/><use transform="matrix(0.06172839506172839,0,0,0.06172839506172839,12.345679012345679,0)" xlink:href="#bm"/><use transform="matrix(0.06172839506172839,0,0,0.06172839506172839,24.691358024691358,0)" xlink:href="#bl"/><use transform="matrix(0.06172839506172839,0,0,0.06172839506172839,35.80246913580247,0)" xlink:href="#bj"/><use transform="matrix(0.06172839506172839,0,0,0.06172839506172839,48.148148148148145,0)" xlink:href="#bh"/><use transform="matrix(0.06172839506172839,0,0,0.06172839506172839,54.32098765432099,0)" xlink:href="#bf"/><use transform="matrix(0.06172839506172839,0,0,0.06172839506172839,59.19753086419753,0)" xlink:href="#bm"/><use transform="matrix(0.06172839506172839,0,0,0.06172839506172839,71.54320987654322,0)" xlink:href="#be"/></g><path fill="#3a414a" d="M190 0L58-211 59 0H30v-248h39L202-35l-2-213h31V0h-41" id="bv"/><g id="n"><use transform="matrix(0.06172839506172839,0,0,0.06172839506172839,0,0)" xlink:href="#bb"/><use transform="matrix(0.06172839506172839,0,0,0.06172839506172839,17.28395061728395,0)" xlink:href="#bv"/></g><path fill="#3a414a" d="M143 4C61 4 22-44 18-125c-5-107 100-154 193-111 17 8 29 25 37 43l-32 9c-13-25-37-40-76-40-61 0-88 39-88 99 0 61 29 100 91 101 35 0 62-11 79-27v-45h-74v-28h105v86C228-13 192 4 143 4" id="bw"/><path fill="#3a414a" d="M30-248c87 1 191-15 191 75 0 78-77 80-158 76V0H30v-248zm33 125c57 0 124 11 124-50 0-59-68-47-124-48v98" id="bx"/><path fill="#3a414a" d="M185-189c-5-48-123-54-124 2 14 75 158 14 163 119 3 78-121 87-175 55-17-10-28-26-33-46l33-7c5 56 141 63 141-1 0-78-155-14-162-118-5-82 145-84 179-34 5 7 8 16 11 25" id="by"/><g id="o"><use transform="matrix(0.06172839506172839,0,0,0.06172839506172839,0,0)" xlink:href="#bw"/><use transform="matrix(0.06172839506172839,0,0,0.06172839506172839,17.28395061728395,0)" xlink:href="#bx"/><use transform="matrix(0.06172839506172839,0,0,0.06172839506172839,32.09876543209876,0)" xlink:href="#by"/></g><g id="p"><use transform="matrix(0.06172839506172839,0,0,0.06172839506172839,0,0)" xlink:href="#bb"/><use transform="matrix(0.06172839506172839,0,0,0.06172839506172839,17.28395061728395,0)" xlink:href="#bv"/></g><g id="q"><use transform="matrix(0.06172839506172839,0,0,0.06172839506172839,0,0)" xlink:href="#bu"/><use transform="matrix(0.06172839506172839,0,0,0.06172839506172839,12.345679012345679,0)" xlink:href="#bm"/><use transform="matrix(0.06172839506172839,0,0,0.06172839506172839,24.691358024691358,0)" xlink:href="#bl"/><use transform="matrix(0.06172839506172839,0,0,0.06172839506172839,35.80246913580247,0)" xlink:href="#bj"/><use transform="matrix(0.06172839506172839,0,0,0.06172839506172839,48.148148148148145,0)" xlink:href="#bh"/><use transform="matrix(0.06172839506172839,0,0,0.06172839506172839,54.32098765432099,0)" xlink:href="#bf"/><use transform="matrix(0.06172839506172839,0,0,0.06172839506172839,59.19753086419753,0)" xlink:href="#bm"/><use transform="matrix(0.06172839506172839,0,0,0.06172839506172839,71.54320987654322,0)" xlink:href="#be"/></g><path fill="#3a414a" d="M63-220v92h138v28H63V0H30v-248h175v28H63" id="bz"/><g id="r"><use transform="matrix(0.06172839506172839,0,0,0.06172839506172839,0,0)" xlink:href="#bb"/><use transform="matrix(0.06172839506172839,0,0,0.06172839506172839,17.28395061728395,0)" xlink:href="#bz"/><use transform="matrix(0.06172839506172839,0,0,0.06172839506172839,30.80246913580247,0)" xlink:href="#bz"/></g><g id="s"><use transform="matrix(0.06172839506172839,0,0,0.06172839506172839,0,0)" xlink:href="#bb"/><use transform="matrix(0.06172839506172839,0,0,0.06172839506172839,17.28395061728395,0)" xlink:href="#bz"/><use transform="matrix(0.06172839506172839,0,0,0.06172839506172839,30.80246913580247,0)" xlink:href="#bz"/></g><g id="t"><use transform="matrix(0.06172839506172839,0,0,0.06172839506172839,0,0)" xlink:href="#bb"/><use transform="matrix(0.06172839506172839,0,0,0.06172839506172839,17.28395061728395,0)" xlink:href="#bz"/><use transform="matrix(0.06172839506172839,0,0,0.06172839506172839,30.80246913580247,0)" xlink:href="#bz"/></g><g id="u"><use transform="matrix(0.06172839506172839,0,0,0.06172839506172839,0,0)" xlink:href="#bn"/><use transform="matrix(0.06172839506172839,0,0,0.06172839506172839,12.345679012345679,0)" xlink:href="#bo"/><use transform="matrix(0.06172839506172839,0,0,0.06172839506172839,24.691358024691358,0)" xlink:href="#bn"/><use transform="matrix(0.06172839506172839,0,0,0.06172839506172839,37.03703703703704,0)" xlink:href="#bo"/><use transform="matrix(0.06172839506172839,0,0,0.06172839506172839,49.382716049382715,0)" xlink:href="#aZ"/></g><path fill="#3a414a" d="M137-103V0h-34v-103L8-248h37l75 118 75-118h37" id="bA"/><path fill="#3a414a" d="M84 4C-5 8 30-112 23-190h32v120c0 31 7 50 39 49 72-2 45-101 50-169h31l1 190h-30c-1-10 1-25-2-33-11 22-28 36-60 37" id="bB"/><g id="v"><use transform="matrix(0.06172839506172839,0,0,0.06172839506172839,0,0)" xlink:href="#bA"/><use transform="matrix(0.06172839506172839,0,0,0.06172839506172839,12.777777777777777,0)" xlink:href="#bm"/><use transform="matrix(0.06172839506172839,0,0,0.06172839506172839,25.123456790123456,0)" xlink:href="#bB"/></g><g id="w"><use transform="matrix(0.06172839506172839,0,0,0.06172839506172839,0,0)" xlink:href="#bh"/><use transform="matrix(0.06172839506172839,0,0,0.06172839506172839,6.172839506172839,0)" xlink:href="#bB"/><use transform="matrix(0.06172839506172839,0,0,0.06172839506172839,18.51851851851852,0)" xlink:href="#bs"/><use transform="matrix(0.06172839506172839,0,0,0.06172839506172839,25.864197530864196,0)" xlink:href="#be"/></g><g id="x"><use transform="matrix(0.06172839506172839,0,0,0.06172839506172839,0,0)" xlink:href="#bw"/><use transform="matrix(0.06172839506172839,0,0,0.06172839506172839,17.28395061728395,0)" xlink:href="#bx"/><use transform="matrix(0.06172839506172839,0,0,0.06172839506172839,32.09876543209876,0)" xlink:href="#by"/></g><g id="y"><use transform="matrix(0.06172839506172839,0,0,0.06172839506172839,0,0)" xlink:href="#bm"/><use transform="matrix(0.06172839506172839,0,0,0.06172839506172839,12.345679012345679,0)" xlink:href="#be"/></g><path fill="#3a414a" d="M240 0l2-218c-23 76-54 145-80 218h-23L58-218 59 0H30v-248h44l77 211c21-75 51-140 76-211h43V0h-30" id="bC"/><g id="z"><use transform="matrix(0.06172839506172839,0,0,0.06172839506172839,0,0)" xlink:href="#bC"/><use transform="matrix(0.06172839506172839,0,0,0.06172839506172839,18.456790123456788,0)" xlink:href="#bj"/><use transform="matrix(0.06172839506172839,0,0,0.06172839506172839,30.80246913580247,0)" xlink:href="#bc"/></g><path fill="#3a414a" d="M135-143c-3-34-86-38-87 0 15 53 115 12 119 90S17 21 10-45l28-5c4 36 97 45 98 0-10-56-113-15-118-90-4-57 82-63 122-42 12 7 21 19 24 35" id="bD"/><path fill="#3a414a" d="M206 0h-36l-40-164L89 0H53L-1-190h32L70-26l43-164h34l41 164 42-164h31" id="bE"/><g id="A"><use transform="matrix(0.06172839506172839,0,0,0.06172839506172839,0,0)" xlink:href="#bD"/><use transform="matrix(0.06172839506172839,0,0,0.06172839506172839,11.11111111111111,0)" xlink:href="#bi"/><use transform="matrix(0.06172839506172839,0,0,0.06172839506172839,23.45679012345679,0)" xlink:href="#bm"/><use transform="matrix(0.06172839506172839,0,0,0.06172839506172839,35.80246913580247,0)" xlink:href="#bE"/><use transform="matrix(0.06172839506172839,0,0,0.06172839506172839,51.79012345679012,0)" xlink:href="#bD"/></g><g id="B"><use transform="matrix(0.06172839506172839,0,0,0.06172839506172839,0,0)" xlink:href="#bB"/><use transform="matrix(0.06172839506172839,0,0,0.06172839506172839,12.345679012345679,0)" xlink:href="#bc"/></g><g id="C"><use transform="matrix(0.06172839506172839,0,0,0.06172839506172839,0,0)" xlink:href="#bD"/><use transform="matrix(0.06172839506172839,0,0,0.06172839506172839,11.11111111111111,0)" xlink:href="#bi"/><use transform="matrix(0.06172839506172839,0,0,0.06172839506172839,23.45679012345679,0)" xlink:href="#bm"/><use transform="matrix(0.06172839506172839,0,0,0.06172839506172839,35.80246913580247,0)" xlink:href="#bE"/><use transform="matrix(0.06172839506172839,0,0,0.06172839506172839,51.79012345679012,0)" xlink:href="#bf"/><use transform="matrix(0.06172839506172839,0,0,0.06172839506172839,56.666666666666664,0)" xlink:href="#be"/><use transform="matrix(0.06172839506172839,0,0,0.06172839506172839,69.01234567901234,0)" xlink:href="#bg"/></g><path fill="#3a414a" d="M115-194c53 0 69 39 70 98 0 66-23 100-70 100C84 3 66-7 56-30L54 0H23l1-261h32v101c10-23 28-34 59-34zm-8 174c40 0 45-34 45-75 0-40-5-75-45-74-42 0-51 32-51 76 0 43 10 73 51 73" id="bF"/><path fill="#3a414a" d="M179-190L93 31C79 59 56 82 12 73V49c39 6 53-20 64-50L1-190h34L92-34l54-156h33" id="bG"/><g id="D"><use transform="matrix(0.06172839506172839,0,0,0.06172839506172839,0,0)" xlink:href="#be"/><use transform="matrix(0.06172839506172839,0,0,0.06172839506172839,12.345679012345679,0)" xlink:href="#bd"/><use transform="matrix(0.06172839506172839,0,0,0.06172839506172839,24.691358024691358,0)" xlink:href="#bj"/><use transform="matrix(0.06172839506172839,0,0,0.06172839506172839,37.03703703703704,0)" xlink:href="#bs"/><use transform="matrix(0.06172839506172839,0,0,0.06172839506172839,44.382716049382715,0)" xlink:href="#bF"/><use transform="matrix(0.06172839506172839,0,0,0.06172839506172839,56.72839506172839,0)" xlink:href="#bG"/></g><g id="E"><use transform="matrix(0.06172839506172839,0,0,0.06172839506172839,0,0)" xlink:href="#bs"/><use transform="matrix(0.06172839506172839,0,0,0.06172839506172839,7.345679012345679,0)" xlink:href="#bd"/><use transform="matrix(0.06172839506172839,0,0,0.06172839506172839,19.691358024691358,0)" xlink:href="#bD"/><use transform="matrix(0.06172839506172839,0,0,0.06172839506172839,30.80246913580247,0)" xlink:href="#bh"/><use transform="matrix(0.06172839506172839,0,0,0.06172839506172839,36.97530864197531,0)" xlink:href="#bj"/><use transform="matrix(0.06172839506172839,0,0,0.06172839506172839,49.32098765432099,0)" xlink:href="#bB"/><use transform="matrix(0.06172839506172839,0,0,0.06172839506172839,61.666666666666664,0)" xlink:href="#bs"/><use transform="matrix(0.06172839506172839,0,0,0.06172839506172839,69.01234567901234,0)" xlink:href="#bj"/><use transform="matrix(0.06172839506172839,0,0,0.06172839506172839,81.35802469135803,0)" xlink:href="#be"/><use transform="matrix(0.06172839506172839,0,0,0.06172839506172839,93.70370370370371,0)" xlink:href="#bh"/><use transform="matrix(0.06172839506172839,0,0,0.06172839506172839,99.87654320987654,0)" xlink:href="#bD"/></g><g id="F"><use transform="matrix(0.06172839506172839,0,0,0.06172839506172839,0,0)" xlink:href="#bn"/><use transform="matrix(0.06172839506172839,0,0,0.06172839506172839,12.345679012345679,0)" xlink:href="#bo"/><use transform="matrix(0.06172839506172839,0,0,0.06172839506172839,24.691358024691358,0)" xlink:href="#bn"/><use transform="matrix(0.06172839506172839,0,0,0.06172839506172839,37.03703703703704,0)" xlink:href="#bo"/><use transform="matrix(0.06172839506172839,0,0,0.06172839506172839,49.382716049382715,0)" xlink:href="#bn"/></g><path fill="#3a414a" d="M47-170H22l-4-78h33" id="bH"/><g id="G"><use transform="matrix(0.06172839506172839,0,0,0.06172839506172839,0,0)" xlink:href="#bt"/><use transform="matrix(0.06172839506172839,0,0,0.06172839506172839,12.345679012345679,0)" xlink:href="#bm"/><use transform="matrix(0.06172839506172839,0,0,0.06172839506172839,24.691358024691358,0)" xlink:href="#be"/><use transform="matrix(0.06172839506172839,0,0,0.06172839506172839,37.03703703703704,0)" xlink:href="#bH"/><use transform="matrix(0.06172839506172839,0,0,0.06172839506172839,41.23456790123457,0)" xlink:href="#bh"/></g><g id="H"><use transform="matrix(0.06172839506172839,0,0,0.06172839506172839,0,0)" xlink:href="#bh"/><use transform="matrix(0.06172839506172839,0,0,0.06172839506172839,6.172839506172839,0)" xlink:href="#bB"/><use transform="matrix(0.06172839506172839,0,0,0.06172839506172839,18.51851851851852,0)" xlink:href="#bs"/><use transform="matrix(0.06172839506172839,0,0,0.06172839506172839,25.864197530864196,0)" xlink:href="#be"/></g><g id="I"><use transform="matrix(0.06172839506172839,0,0,0.06172839506172839,0,0)" xlink:href="#bm"/><use transform="matrix(0.06172839506172839,0,0,0.06172839506172839,12.345679012345679,0)" xlink:href="#be"/></g><path fill="#3a414a" d="M16-82v-28h88v28H16" id="bI"/><use transform="matrix(0.06172839506172839,0,0,0.06172839506172839,0,0)" xlink:href="#bI" id="J"/><path fill="#3a414a" d="M18-27v-27l151-64-151-65v-27l175 74v36" id="bJ"/><use transform="matrix(0.06172839506172839,0,0,0.06172839506172839,0,0)" xlink:href="#bJ" id="K"/><path fill="#3a414a" d="M30 0v-248h187v28H63v79h144v27H63v87h162V0H30" id="bK"/><g id="L"><use transform="matrix(0.06172839506172839,0,0,0.06172839506172839,0,0)" xlink:href="#bK"/><use transform="matrix(0.06172839506172839,0,0,0.06172839506172839,14.814814814814813,0)" xlink:href="#be"/><use transform="matrix(0.06172839506172839,0,0,0.06172839506172839,27.160493827160494,0)" xlink:href="#bh"/><use transform="matrix(0.06172839506172839,0,0,0.06172839506172839,33.333333333333336,0)" xlink:href="#bd"/><use transform="matrix(0.06172839506172839,0,0,0.06172839506172839,45.67901234567901,0)" xlink:href="#bs"/></g><g id="M"><use transform="matrix(0.06172839506172839,0,0,0.06172839506172839,0,0)" xlink:href="#bj"/><use transform="matrix(0.06172839506172839,0,0,0.06172839506172839,12.345679012345679,0)" xlink:href="#bt"/><use transform="matrix(0.06172839506172839,0,0,0.06172839506172839,24.691358024691358,0)" xlink:href="#bt"/><use transform="matrix(0.06172839506172839,0,0,0.06172839506172839,37.03703703703704,0)" xlink:href="#bs"/><use transform="matrix(0.06172839506172839,0,0,0.06172839506172839,44.382716049382715,0)" xlink:href="#bd"/><use transform="matrix(0.06172839506172839,0,0,0.06172839506172839,56.72839506172839,0)" xlink:href="#bD"/><use transform="matrix(0.06172839506172839,0,0,0.06172839506172839,67.8395061728395,0)" xlink:href="#bD"/></g><path fill="#3a414a" d="M126-127c33 6 58 20 58 59 0 88-139 92-164 29-3-8-5-16-6-25l32-3c6 27 21 44 54 44 32 0 52-15 52-46 0-38-36-46-79-43v-28c39 1 72-4 72-42 0-27-17-43-46-43-28 0-47 15-49 41l-32-3c6-42 35-63 81-64 48-1 79 21 79 65 0 36-21 52-52 59" id="bL"/><g id="N"><use transform="matrix(0.06172839506172839,0,0,0.06172839506172839,0,0)" xlink:href="#bn"/><use transform="matrix(0.06172839506172839,0,0,0.06172839506172839,12.345679012345679,0)" xlink:href="#bo"/><use transform="matrix(0.06172839506172839,0,0,0.06172839506172839,24.691358024691358,0)" xlink:href="#bL"/><use transform="matrix(0.06172839506172839,0,0,0.06172839506172839,37.03703703703704,0)" xlink:href="#bo"/><use transform="matrix(0.06172839506172839,0,0,0.06172839506172839,49.382716049382715,0)" xlink:href="#aZ"/></g><g id="O"><use transform="matrix(0.06172839506172839,0,0,0.06172839506172839,0,0)" xlink:href="#bu"/><use transform="matrix(0.06172839506172839,0,0,0.06172839506172839,12.345679012345679,0)" xlink:href="#bm"/><use transform="matrix(0.06172839506172839,0,0,0.06172839506172839,24.691358024691358,0)" xlink:href="#bl"/><use transform="matrix(0.06172839506172839,0,0,0.06172839506172839,35.80246913580247,0)" xlink:href="#bj"/><use transform="matrix(0.06172839506172839,0,0,0.06172839506172839,48.148148148148145,0)" xlink:href="#bh"/><use transform="matrix(0.06172839506172839,0,0,0.06172839506172839,54.32098765432099,0)" xlink:href="#bf"/><use transform="matrix(0.06172839506172839,0,0,0.06172839506172839,59.19753086419753,0)" xlink:href="#bm"/><use transform="matrix(0.06172839506172839,0,0,0.06172839506172839,71.54320987654322,0)" xlink:href="#be"/></g><g id="P"><use transform="matrix(0.06172839506172839,0,0,0.06172839506172839,0,0)" xlink:href="#bf"/><use transform="matrix(0.06172839506172839,0,0,0.06172839506172839,4.876543209876543,0)" xlink:href="#bD"/></g><g id="Q"><use transform="matrix(0.06172839506172839,0,0,0.06172839506172839,0,0)" xlink:href="#bD"/><use transform="matrix(0.06172839506172839,0,0,0.06172839506172839,11.11111111111111,0)" xlink:href="#bd"/><use transform="matrix(0.06172839506172839,0,0,0.06172839506172839,23.45679012345679,0)" xlink:href="#bh"/></g><g id="R"><use transform="matrix(0.06172839506172839,0,0,0.06172839506172839,0,0)" xlink:href="#br"/><use transform="matrix(0.06172839506172839,0,0,0.06172839506172839,7.8395061728395055,0)" xlink:href="#bb"/><use transform="matrix(0.06172839506172839,0,0,0.06172839506172839,25.123456790123456,0)" xlink:href="#be"/><use transform="matrix(0.06172839506172839,0,0,0.06172839506172839,37.46913580246913,0)" xlink:href="#bk"/><use transform="matrix(0.06172839506172839,0,0,0.06172839506172839,42.34567901234568,0)" xlink:href="#bG"/></g><g id="S"><use transform="matrix(0.06172839506172839,0,0,0.06172839506172839,0,0)" xlink:href="#bh"/><use transform="matrix(0.06172839506172839,0,0,0.06172839506172839,6.172839506172839,0)" xlink:href="#bi"/><use transform="matrix(0.06172839506172839,0,0,0.06172839506172839,18.51851851851852,0)" xlink:href="#bf"/><use transform="matrix(0.06172839506172839,0,0,0.06172839506172839,23.395061728395063,0)" xlink:href="#bD"/></g><path fill="#3a414a" d="M210-169c-67 3-38 105-44 169h-31v-121c0-29-5-50-35-48C34-165 62-65 56 0H25l-1-190h30c1 10-1 24 2 32 10-44 99-50 107 0 11-21 27-35 58-36 85-2 47 119 55 194h-31v-121c0-29-5-49-35-48" id="bM"/><g id="T"><use transform="matrix(0.06172839506172839,0,0,0.06172839506172839,0,0)" xlink:href="#bh"/><use transform="matrix(0.06172839506172839,0,0,0.06172839506172839,6.172839506172839,0)" xlink:href="#bf"/><use transform="matrix(0.06172839506172839,0,0,0.06172839506172839,11.049382716049383,0)" xlink:href="#bM"/><use transform="matrix(0.06172839506172839,0,0,0.06172839506172839,29.50617283950617,0)" xlink:href="#bd"/><use transform="matrix(0.06172839506172839,0,0,0.06172839506172839,41.85185185185185,0)" xlink:href="#br"/></g><g id="V"><use transform="matrix(0.06172839506172839,0,0,0.06172839506172839,0,0)" xlink:href="#bn"/><use transform="matrix(0.06172839506172839,0,0,0.06172839506172839,12.345679012345679,0)" xlink:href="#bo"/><use transform="matrix(0.06172839506172839,0,0,0.06172839506172839,24.691358024691358,0)" xlink:href="#bL"/><use transform="matrix(0.06172839506172839,0,0,0.06172839506172839,37.03703703703704,0)" xlink:href="#bo"/><use transform="matrix(0.06172839506172839,0,0,0.06172839506172839,49.382716049382715,0)" xlink:href="#bn"/></g><path fill="#3a414a" d="M30-248c118-7 216 8 213 122C240-48 200 0 122 0H30v-248zM63-27c89 8 146-16 146-99s-60-101-146-95v194" id="bN"/><g id="W"><use transform="matrix(0.06172839506172839,0,0,0.06172839506172839,0,0)" xlink:href="#br"/><use transform="matrix(0.06172839506172839,0,0,0.06172839506172839,7.8395061728395055,0)" xlink:href="#bN"/><use transform="matrix(0.06172839506172839,0,0,0.06172839506172839,23.827160493827158,0)" xlink:href="#bm"/><use transform="matrix(0.06172839506172839,0,0,0.06172839506172839,36.172839506172835,0)" xlink:href="#be"/><use transform="matrix(0.06172839506172839,0,0,0.06172839506172839,48.51851851851851,0)" xlink:href="#bH"/><use transform="matrix(0.06172839506172839,0,0,0.06172839506172839,52.716049382716044,0)" xlink:href="#bh"/></g><path fill="#3a414a" d="M205 0l-28-72H64L36 0H1l101-248h38L239 0h-34zm-38-99l-47-123c-12 45-31 82-46 123h93" id="bO"/><g id="X"><use transform="matrix(0.06172839506172839,0,0,0.06172839506172839,0,0)" xlink:href="#bO"/><use transform="matrix(0.06172839506172839,0,0,0.06172839506172839,14.814814814814813,0)" xlink:href="#bk"/><use transform="matrix(0.06172839506172839,0,0,0.06172839506172839,19.691358024691354,0)" xlink:href="#bk"/><use transform="matrix(0.06172839506172839,0,0,0.06172839506172839,24.5679012345679,0)" xlink:href="#bm"/><use transform="matrix(0.06172839506172839,0,0,0.06172839506172839,36.913580246913575,0)" xlink:href="#bE"/><use transform="matrix(0.06172839506172839,0,0,0.06172839506172839,52.90123456790123,0)" xlink:href="#br"/></g><g id="Y"><use transform="matrix(0.06172839506172839,0,0,0.06172839506172839,0,0)" xlink:href="#bI"/><use transform="matrix(0.06172839506172839,0,0,0.06172839506172839,7.345679012345679,0)" xlink:href="#bJ"/></g><g id="Z"><use transform="matrix(0.06172839506172839,0,0,0.06172839506172839,0,0)" xlink:href="#bd"/><use transform="matrix(0.06172839506172839,0,0,0.06172839506172839,12.345679012345679,0)" xlink:href="#be"/><use transform="matrix(0.06172839506172839,0,0,0.06172839506172839,24.691358024691358,0)" xlink:href="#bh"/><use transform="matrix(0.06172839506172839,0,0,0.06172839506172839,30.864197530864196,0)" xlink:href="#bd"/><use transform="matrix(0.06172839506172839,0,0,0.06172839506172839,43.20987654320987,0)" xlink:href="#bs"/></g><g id="aa"><use transform="matrix(0.06172839506172839,0,0,0.06172839506172839,0,0)" xlink:href="#bb"/><use transform="matrix(0.06172839506172839,0,0,0.06172839506172839,17.28395061728395,0)" xlink:href="#bv"/></g><path fill="#3a414a" d="M155-56V0h-30v-56H8v-25l114-167h33v167h35v25h-35zm-30-156c-27 46-58 90-88 131h88v-131" id="bP"/><g id="ab"><use transform="matrix(0.06172839506172839,0,0,0.06172839506172839,0,0)" xlink:href="#bn"/><use transform="matrix(0.06172839506172839,0,0,0.06172839506172839,12.345679012345679,0)" xlink:href="#bo"/><use transform="matrix(0.06172839506172839,0,0,0.06172839506172839,24.691358024691358,0)" xlink:href="#bP"/><use transform="matrix(0.06172839506172839,0,0,0.06172839506172839,37.03703703703704,0)" xlink:href="#bo"/><use transform="matrix(0.06172839506172839,0,0,0.06172839506172839,49.382716049382715,0)" xlink:href="#aZ"/></g><g id="ac"><use transform="matrix(0.06172839506172839,0,0,0.06172839506172839,0,0)" xlink:href="#bf"/><use transform="matrix(0.06172839506172839,0,0,0.06172839506172839,4.876543209876543,0)" xlink:href="#bM"/><use transform="matrix(0.06172839506172839,0,0,0.06172839506172839,23.33333333333333,0)" xlink:href="#bd"/><use transform="matrix(0.06172839506172839,0,0,0.06172839506172839,35.679012345679006,0)" xlink:href="#br"/></g><g id="ad"><use transform="matrix(0.06172839506172839,0,0,0.06172839506172839,0,0)" xlink:href="#bh"/><use transform="matrix(0.06172839506172839,0,0,0.06172839506172839,6.172839506172839,0)" xlink:href="#bB"/><use transform="matrix(0.06172839506172839,0,0,0.06172839506172839,18.51851851851852,0)" xlink:href="#bs"/><use transform="matrix(0.06172839506172839,0,0,0.06172839506172839,25.864197530864196,0)" xlink:href="#be"/></g><g id="ae"><use transform="matrix(0.06172839506172839,0,0,0.06172839506172839,0,0)" xlink:href="#bn"/><use transform="matrix(0.06172839506172839,0,0,0.06172839506172839,12.345679012345679,0)" xlink:href="#bo"/><use transform="matrix(0.06172839506172839,0,0,0.06172839506172839,24.691358024691358,0)" xlink:href="#bP"/><use transform="matrix(0.06172839506172839,0,0,0.06172839506172839,37.03703703703704,0)" xlink:href="#bo"/><use transform="matrix(0.06172839506172839,0,0,0.06172839506172839,49.382716049382715,0)" xlink:href="#bL"/><path fill="#3a414a" d="M-1.1-7.1H69v1.62H-1.1z"/></g><path fill="#3a414a" d="M87 75C49 33 22-17 22-94c0-76 28-126 65-167h31c-38 41-64 92-64 168S80 34 118 75H87" id="bQ"/><path fill="#3a414a" d="M33-261c38 41 65 92 65 168S71 34 33 75H2C39 34 66-17 66-93S39-220 2-261h31" id="bR"/><g id="af"><use transform="matrix(0.06172839506172839,0,0,0.06172839506172839,0,0)" xlink:href="#bQ"/><use transform="matrix(0.06172839506172839,0,0,0.06172839506172839,7.345679012345679,0)" xlink:href="#bn"/><use transform="matrix(0.06172839506172839,0,0,0.06172839506172839,19.691358024691358,0)" xlink:href="#bo"/><use transform="matrix(0.06172839506172839,0,0,0.06172839506172839,32.03703703703704,0)" xlink:href="#bL"/><use transform="matrix(0.06172839506172839,0,0,0.06172839506172839,44.382716049382715,0)" xlink:href="#bo"/><use transform="matrix(0.06172839506172839,0,0,0.06172839506172839,56.72839506172839,0)" xlink:href="#bn"/><use transform="matrix(0.06172839506172839,0,0,0.06172839506172839,69.07407407407408,0)" xlink:href="#bR"/><path fill="#3a414a" d="M75.3-7.1h8.4v1.62h-8.4z"/></g><g id="ag"><use transform="matrix(0.06172839506172839,0,0,0.06172839506172839,0,0)" xlink:href="#ba"/><path fill="#3a414a" d="M-1.1-7.1h8.4v1.62h-8.4z"/></g><g id="ah"><use transform="matrix(0.06172839506172839,0,0,0.06172839506172839,0,0)" xlink:href="#bu"/><use transform="matrix(0.06172839506172839,0,0,0.06172839506172839,12.345679012345679,0)" xlink:href="#bm"/><use transform="matrix(0.06172839506172839,0,0,0.06172839506172839,24.691358024691358,0)" xlink:href="#bl"/><use transform="matrix(0.06172839506172839,0,0,0.06172839506172839,35.80246913580247,0)" xlink:href="#bj"/><use transform="matrix(0.06172839506172839,0,0,0.06172839506172839,48.148148148148145,0)" xlink:href="#bh"/><use transform="matrix(0.06172839506172839,0,0,0.06172839506172839,54.32098765432099,0)" xlink:href="#bf"/><use transform="matrix(0.06172839506172839,0,0,0.06172839506172839,59.19753086419753,0)" xlink:href="#bm"/><use transform="matrix(0.06172839506172839,0,0,0.06172839506172839,71.54320987654322,0)" xlink:href="#be"/><path fill="#3a414a" d="M-1.1-7.1h92.27v1.62H-1.1z"/></g><g id="ai"><use transform="matrix(0.06172839506172839,0,0,0.06172839506172839,0,0)" xlink:href="#bf"/><use transform="matrix(0.06172839506172839,0,0,0.06172839506172839,4.876543209876543,0)" xlink:href="#bD"/><path fill="#3a414a" d="M-1.1-7.1h24.37v1.62H-1.1z"/></g><g id="aj"><use transform="matrix(0.06172839506172839,0,0,0.06172839506172839,0,0)" xlink:href="#bD"/><use transform="matrix(0.06172839506172839,0,0,0.06172839506172839,11.11111111111111,0)" xlink:href="#bd"/><use transform="matrix(0.06172839506172839,0,0,0.06172839506172839,23.45679012345679,0)" xlink:href="#bh"/><path fill="#3a414a" d="M-1.1-7.1h38v1.62h-38z"/></g><g id="ak"><use transform="matrix(0.06172839506172839,0,0,0.06172839506172839,0,0)" xlink:href="#bm"/><use transform="matrix(0.06172839506172839,0,0,0.06172839506172839,12.345679012345679,0)" xlink:href="#be"/><path fill="#3a414a" d="M-1.1-7.1h26.9v1.62H-1.1z"/></g><g id="al"><use transform="matrix(0.06172839506172839,0,0,0.06172839506172839,0,0)" xlink:href="#br"/><use transform="matrix(0.06172839506172839,0,0,0.06172839506172839,7.8395061728395055,0)" xlink:href="#bN"/><use transform="matrix(0.06172839506172839,0,0,0.06172839506172839,23.827160493827158,0)" xlink:href="#bm"/><use transform="matrix(0.06172839506172839,0,0,0.06172839506172839,36.172839506172835,0)" xlink:href="#be"/><use transform="matrix(0.06172839506172839,0,0,0.06172839506172839,48.51851851851851,0)" xlink:href="#bH"/><use transform="matrix(0.06172839506172839,0,0,0.06172839506172839,52.716049382716044,0)" xlink:href="#bh"/><path fill="#3a414a" d="M-1.1-7.1h67.27v1.62H-1.1z"/></g><g id="am"><use transform="matrix(0.06172839506172839,0,0,0.06172839506172839,0,0)" xlink:href="#bO"/><use transform="matrix(0.06172839506172839,0,0,0.06172839506172839,14.814814814814813,0)" xlink:href="#bk"/><use transform="matrix(0.06172839506172839,0,0,0.06172839506172839,19.691358024691354,0)" xlink:href="#bk"/><use transform="matrix(0.06172839506172839,0,0,0.06172839506172839,24.5679012345679,0)" xlink:href="#bm"/><use transform="matrix(0.06172839506172839,0,0,0.06172839506172839,36.913580246913575,0)" xlink:href="#bE"/><use transform="matrix(0.06172839506172839,0,0,0.06172839506172839,52.90123456790123,0)" xlink:href="#br"/><path fill="#3a414a" d="M-1.1-7.1h69.13v1.62H-1.1z"/></g><g id="an"><use transform="matrix(0.06172839506172839,0,0,0.06172839506172839,0,0)" xlink:href="#ba"/><path fill="#3a414a" d="M-1.1-7.1h8.4v1.62h-8.4z"/></g><g id="ao"><use transform="matrix(0.06172839506172839,0,0,0.06172839506172839,0,0)" xlink:href="#bw"/><use transform="matrix(0.06172839506172839,0,0,0.06172839506172839,17.28395061728395,0)" xlink:href="#bx"/><use transform="matrix(0.06172839506172839,0,0,0.06172839506172839,32.09876543209876,0)" xlink:href="#by"/><path fill="#3a414a" d="M-1.1-7.1h55.3v1.62H-1.1z"/></g><g id="ap"><use transform="matrix(0.06172839506172839,0,0,0.06172839506172839,0,0)" xlink:href="#bb"/><use transform="matrix(0.06172839506172839,0,0,0.06172839506172839,17.28395061728395,0)" xlink:href="#bv"/><path fill="#3a414a" d="M-1.1-7.1h41.66v1.62H-1.1z"/></g><g id="aq"><use transform="matrix(0.06172839506172839,0,0,0.06172839506172839,0,0)" xlink:href="#bm"/><use transform="matrix(0.06172839506172839,0,0,0.06172839506172839,12.345679012345679,0)" xlink:href="#bs"/><path fill="#3a414a" d="M-1.1-7.1h28.08v1.62h-28.1z"/></g><g id="ar"><use transform="matrix(0.06172839506172839,0,0,0.06172839506172839,0,0)" xlink:href="#bb"/><use transform="matrix(0.06172839506172839,0,0,0.06172839506172839,17.28395061728395,0)" xlink:href="#bz"/><use transform="matrix(0.06172839506172839,0,0,0.06172839506172839,30.80246913580247,0)" xlink:href="#bz"/><path fill="#3a414a" d="M-1.1-7.1h46.53v1.62H-1.1z"/></g><g id="as"><use transform="matrix(0.06172839506172839,0,0,0.06172839506172839,0,0)" xlink:href="#bt"/><use transform="matrix(0.06172839506172839,0,0,0.06172839506172839,12.345679012345679,0)" xlink:href="#bm"/><use transform="matrix(0.06172839506172839,0,0,0.06172839506172839,24.691358024691358,0)" xlink:href="#bd"/><use transform="matrix(0.06172839506172839,0,0,0.06172839506172839,37.03703703703704,0)" xlink:href="#bD"/><use transform="matrix(0.06172839506172839,0,0,0.06172839506172839,48.14814814814815,0)" xlink:href="#be"/><use transform="matrix(0.06172839506172839,0,0,0.06172839506172839,60.49382716049383,0)" xlink:href="#bh"/><path fill="#3a414a" d="M-1.1-7.1h75.05v1.62H-1.1z"/></g><g id="at"><use transform="matrix(0.06172839506172839,0,0,0.06172839506172839,0,0)" xlink:href="#bM"/><use transform="matrix(0.06172839506172839,0,0,0.06172839506172839,18.456790123456788,0)" xlink:href="#bj"/><use transform="matrix(0.06172839506172839,0,0,0.06172839506172839,30.80246913580247,0)" xlink:href="#bh"/><use transform="matrix(0.06172839506172839,0,0,0.06172839506172839,36.97530864197531,0)" xlink:href="#bh"/><use transform="matrix(0.06172839506172839,0,0,0.06172839506172839,43.14814814814815,0)" xlink:href="#bd"/><use transform="matrix(0.06172839506172839,0,0,0.06172839506172839,55.49382716049383,0)" xlink:href="#bs"/><path fill="#3a414a" d="M-1.1-7.1H70.1v1.62H-1.1z"/></g><g id="au"><use transform="matrix(0.06172839506172839,0,0,0.06172839506172839,0,0)" xlink:href="#bI"/><use transform="matrix(0.06172839506172839,0,0,0.06172839506172839,7.345679012345679,0)" xlink:href="#bJ"/><path fill="#3a414a" d="M-1.1-7.1H21.4v1.62H-1.1z"/></g><g id="av"><use transform="matrix(0.06172839506172839,0,0,0.06172839506172839,0,0)" xlink:href="#bd"/><use transform="matrix(0.06172839506172839,0,0,0.06172839506172839,12.345679012345679,0)" xlink:href="#be"/><use transform="matrix(0.06172839506172839,0,0,0.06172839506172839,24.691358024691358,0)" xlink:href="#bh"/><use transform="matrix(0.06172839506172839,0,0,0.06172839506172839,30.864197530864196,0)" xlink:href="#bd"/><use transform="matrix(0.06172839506172839,0,0,0.06172839506172839,43.20987654320987,0)" xlink:href="#bs"/><path fill="#3a414a" d="M-1.1-7.1h58.94v1.62H-1.1z"/></g><g id="aw"><use transform="matrix(0.06172839506172839,0,0,0.06172839506172839,0,0)" xlink:href="#bj"/><use transform="matrix(0.06172839506172839,0,0,0.06172839506172839,12.345679012345679,0)" xlink:href="#bt"/><use transform="matrix(0.06172839506172839,0,0,0.06172839506172839,24.691358024691358,0)" xlink:href="#bt"/><use transform="matrix(0.06172839506172839,0,0,0.06172839506172839,37.03703703703704,0)" xlink:href="#bs"/><use transform="matrix(0.06172839506172839,0,0,0.06172839506172839,44.382716049382715,0)" xlink:href="#bd"/><use transform="matrix(0.06172839506172839,0,0,0.06172839506172839,56.72839506172839,0)" xlink:href="#bD"/><use transform="matrix(0.06172839506172839,0,0,0.06172839506172839,67.8395061728395,0)" xlink:href="#bD"/><path fill="#3a414a" d="M-1.1-7.1h81.16v1.62H-1.1z"/></g><g id="ax"><use transform="matrix(0.06172839506172839,0,0,0.06172839506172839,0,0)" xlink:href="#bn"/><use transform="matrix(0.06172839506172839,0,0,0.06172839506172839,12.345679012345679,0)" xlink:href="#bo"/><use transform="matrix(0.06172839506172839,0,0,0.06172839506172839,24.691358024691358,0)" xlink:href="#bP"/><use transform="matrix(0.06172839506172839,0,0,0.06172839506172839,37.03703703703704,0)" xlink:href="#bo"/><use transform="matrix(0.06172839506172839,0,0,0.06172839506172839,49.382716049382715,0)" xlink:href="#bn"/></g><g id="ay"><use transform="matrix(0.06172839506172839,0,0,0.06172839506172839,0,0)" xlink:href="#bt"/><use transform="matrix(0.06172839506172839,0,0,0.06172839506172839,12.345679012345679,0)" xlink:href="#bm"/><use transform="matrix(0.06172839506172839,0,0,0.06172839506172839,24.691358024691358,0)" xlink:href="#be"/><use transform="matrix(0.06172839506172839,0,0,0.06172839506172839,37.03703703703704,0)" xlink:href="#bH"/><use transform="matrix(0.06172839506172839,0,0,0.06172839506172839,41.23456790123457,0)" xlink:href="#bh"/></g><g id="az"><use transform="matrix(0.06172839506172839,0,0,0.06172839506172839,0,0)" xlink:href="#bw"/><use transform="matrix(0.06172839506172839,0,0,0.06172839506172839,17.28395061728395,0)" xlink:href="#bx"/><use transform="matrix(0.06172839506172839,0,0,0.06172839506172839,32.09876543209876,0)" xlink:href="#by"/></g><g id="aA"><use transform="matrix(0.06172839506172839,0,0,0.06172839506172839,0,0)" xlink:href="#bb"/><use transform="matrix(0.06172839506172839,0,0,0.06172839506172839,17.28395061728395,0)" xlink:href="#bv"/></g><use transform="matrix(0.06172839506172839,0,0,0.06172839506172839,0,0)" xlink:href="#bL" id="aB"/><g id="aC"><use transform="matrix(0.06172839506172839,0,0,0.06172839506172839,0,0)" xlink:href="#by"/><use transform="matrix(0.06172839506172839,0,0,0.06172839506172839,14.814814814814813,0)" xlink:href="#bd"/><use transform="matrix(0.06172839506172839,0,0,0.06172839506172839,27.160493827160494,0)" xlink:href="#bk"/><use transform="matrix(0.06172839506172839,0,0,0.06172839506172839,32.03703703703704,0)" xlink:href="#bd"/><use transform="matrix(0.06172839506172839,0,0,0.06172839506172839,44.382716049382715,0)" xlink:href="#bl"/><use transform="matrix(0.06172839506172839,0,0,0.06172839506172839,55.49382716049382,0)" xlink:href="#bh"/><use transform="matrix(0.06172839506172839,0,0,0.06172839506172839,61.666666666666664,0)" xlink:href="#bf"/><use transform="matrix(0.06172839506172839,0,0,0.06172839506172839,66.5432098765432,0)" xlink:href="#be"/><use transform="matrix(0.06172839506172839,0,0,0.06172839506172839,78.88888888888889,0)" xlink:href="#bg"/></g><g id="aD"><use transform="matrix(0.06172839506172839,0,0,0.06172839506172839,0,0)" xlink:href="#bs"/><use transform="matrix(0.06172839506172839,0,0,0.06172839506172839,7.345679012345679,0)" xlink:href="#bd"/><use transform="matrix(0.06172839506172839,0,0,0.06172839506172839,19.691358024691358,0)" xlink:href="#bD"/><use transform="matrix(0.06172839506172839,0,0,0.06172839506172839,30.80246913580247,0)" xlink:href="#bh"/><use transform="matrix(0.06172839506172839,0,0,0.06172839506172839,36.97530864197531,0)" xlink:href="#bj"/><use transform="matrix(0.06172839506172839,0,0,0.06172839506172839,49.32098765432099,0)" xlink:href="#bB"/><use transform="matrix(0.06172839506172839,0,0,0.06172839506172839,61.666666666666664,0)" xlink:href="#bs"/><use transform="matrix(0.06172839506172839,0,0,0.06172839506172839,69.01234567901234,0)" xlink:href="#bj"/><use transform="matrix(0.06172839506172839,0,0,0.06172839506172839,81.35802469135803,0)" xlink:href="#be"/><use transform="matrix(0.06172839506172839,0,0,0.06172839506172839,93.70370370370371,0)" xlink:href="#bh"/></g><g id="aE"><use transform="matrix(0.06172839506172839,0,0,0.06172839506172839,0,0)" xlink:href="#bL"/><use transform="matrix(0.06172839506172839,0,0,0.06172839506172839,12.345679012345679,0)" xlink:href="#bo"/><use transform="matrix(0.06172839506172839,0,0,0.06172839506172839,24.691358024691358,0)" xlink:href="#aZ"/></g><g id="aF"><use transform="matrix(0.06172839506172839,0,0,0.06172839506172839,0,0)" xlink:href="#br"/><use transform="matrix(0.06172839506172839,0,0,0.06172839506172839,7.8395061728395055,0)" xlink:href="#bO"/><use transform="matrix(0.06172839506172839,0,0,0.06172839506172839,22.65432098765432,0)" xlink:href="#bh"/></g><g id="aG"><use transform="matrix(0.06172839506172839,0,0,0.06172839506172839,0,0)" xlink:href="#bh"/><use transform="matrix(0.06172839506172839,0,0,0.06172839506172839,6.172839506172839,0)" xlink:href="#bi"/><use transform="matrix(0.06172839506172839,0,0,0.06172839506172839,18.51851851851852,0)" xlink:href="#bd"/></g><g id="aH"><use transform="matrix(0.06172839506172839,0,0,0.06172839506172839,0,0)" xlink:href="#bs"/><use transform="matrix(0.06172839506172839,0,0,0.06172839506172839,7.345679012345679,0)" xlink:href="#bd"/><use transform="matrix(0.06172839506172839,0,0,0.06172839506172839,19.691358024691358,0)" xlink:href="#bD"/><use transform="matrix(0.06172839506172839,0,0,0.06172839506172839,30.80246913580247,0)" xlink:href="#bh"/><use transform="matrix(0.06172839506172839,0,0,0.06172839506172839,36.97530864197531,0)" xlink:href="#bj"/><use transform="matrix(0.06172839506172839,0,0,0.06172839506172839,49.32098765432099,0)" xlink:href="#bB"/><use transform="matrix(0.06172839506172839,0,0,0.06172839506172839,61.666666666666664,0)" xlink:href="#bs"/><use transform="matrix(0.06172839506172839,0,0,0.06172839506172839,69.01234567901234,0)" xlink:href="#bj"/><use transform="matrix(0.06172839506172839,0,0,0.06172839506172839,81.35802469135803,0)" xlink:href="#be"/><use transform="matrix(0.06172839506172839,0,0,0.06172839506172839,93.70370370370371,0)" xlink:href="#bh"/><use transform="matrix(0.06172839506172839,0,0,0.06172839506172839,99.87654320987654,0)" xlink:href="#br"/></g><g id="aI"><use transform="matrix(0.06172839506172839,0,0,0.06172839506172839,0,0)" xlink:href="#bL"/><use transform="matrix(0.06172839506172839,0,0,0.06172839506172839,12.345679012345679,0)" xlink:href="#bo"/><use transform="matrix(0.06172839506172839,0,0,0.06172839506172839,24.691358024691358,0)" xlink:href="#bn"/></g><path fill="#3a414a" d="M127-220V0H93v-220H8v-28h204v28h-85" id="bS"/><g id="aJ"><use transform="matrix(0.06172839506172839,0,0,0.06172839506172839,0,0)" xlink:href="#br"/><use transform="matrix(0.06172839506172839,0,0,0.06172839506172839,7.8395061728395055,0)" xlink:href="#bS"/><use transform="matrix(0.06172839506172839,0,0,0.06172839506172839,18.888888888888886,0)" xlink:href="#bm"/></g><g id="aK"><use transform="matrix(0.06172839506172839,0,0,0.06172839506172839,0,0)" xlink:href="#bg"/><use transform="matrix(0.06172839506172839,0,0,0.06172839506172839,12.345679012345679,0)" xlink:href="#bm"/><use transform="matrix(0.06172839506172839,0,0,0.06172839506172839,24.691358024691358,0)" xlink:href="#br"/></g><use transform="matrix(0.06172839506172839,0,0,0.06172839506172839,0,0)" xlink:href="#bP" id="aL"/><g id="aM"><use transform="matrix(0.06172839506172839,0,0,0.06172839506172839,0,0)" xlink:href="#by"/><use transform="matrix(0.06172839506172839,0,0,0.06172839506172839,14.814814814814813,0)" xlink:href="#bd"/><use transform="matrix(0.06172839506172839,0,0,0.06172839506172839,27.160493827160494,0)" xlink:href="#bk"/><use transform="matrix(0.06172839506172839,0,0,0.06172839506172839,32.03703703703704,0)" xlink:href="#bd"/><use transform="matrix(0.06172839506172839,0,0,0.06172839506172839,44.382716049382715,0)" xlink:href="#bl"/><use transform="matrix(0.06172839506172839,0,0,0.06172839506172839,55.49382716049382,0)" xlink:href="#bh"/><use transform="matrix(0.06172839506172839,0,0,0.06172839506172839,61.666666666666664,0)" xlink:href="#bf"/><use transform="matrix(0.06172839506172839,0,0,0.06172839506172839,66.5432098765432,0)" xlink:href="#be"/><use transform="matrix(0.06172839506172839,0,0,0.06172839506172839,78.88888888888889,0)" xlink:href="#bg"/></g><path fill="#3a414a" d="M101-234c-31-9-42 10-38 44h38v23H63V0H32v-167H5v-23h27c-7-52 17-82 69-68v24" id="bT"/><g id="aN"><use transform="matrix(0.06172839506172839,0,0,0.06172839506172839,0,0)" xlink:href="#bT"/><use transform="matrix(0.06172839506172839,0,0,0.06172839506172839,6.172839506172839,0)" xlink:href="#bm"/><use transform="matrix(0.06172839506172839,0,0,0.06172839506172839,18.51851851851852,0)" xlink:href="#bm"/><use transform="matrix(0.06172839506172839,0,0,0.06172839506172839,30.864197530864196,0)" xlink:href="#bt"/></g><g id="aO"><use transform="matrix(0.06172839506172839,0,0,0.06172839506172839,0,0)" xlink:href="#bQ"/><use transform="matrix(0.06172839506172839,0,0,0.06172839506172839,7.345679012345679,0)" xlink:href="#aZ"/></g><g id="aP"><use transform="matrix(0.06172839506172839,0,0,0.06172839506172839,0,0)" xlink:href="#bw"/><use transform="matrix(0.06172839506172839,0,0,0.06172839506172839,17.28395061728395,0)" xlink:href="#bs"/><use transform="matrix(0.06172839506172839,0,0,0.06172839506172839,24.629629629629626,0)" xlink:href="#bj"/><use transform="matrix(0.06172839506172839,0,0,0.06172839506172839,36.9753086419753,0)" xlink:href="#be"/><use transform="matrix(0.06172839506172839,0,0,0.06172839506172839,49.32098765432098,0)" xlink:href="#bt"/><use transform="matrix(0.06172839506172839,0,0,0.06172839506172839,61.66666666666666,0)" xlink:href="#bd"/><use transform="matrix(0.06172839506172839,0,0,0.06172839506172839,74.01234567901234,0)" xlink:href="#bs"/><use transform="matrix(0.06172839506172839,0,0,0.06172839506172839,81.35802469135803,0)" xlink:href="#bR"/></g><path fill="#3a414a" d="M54-142c48-35 137-8 131 61C196 18 31 33 14-55l32-4c7 23 22 37 52 37 35-1 51-22 54-58 4-55-73-65-99-34H22l8-134h141v27H59" id="bU"/><use transform="matrix(0.06172839506172839,0,0,0.06172839506172839,0,0)" xlink:href="#bU" id="aQ"/><g id="aR"><use transform="matrix(0.06172839506172839,0,0,0.06172839506172839,0,0)" xlink:href="#bO"/><use transform="matrix(0.06172839506172839,0,0,0.06172839506172839,14.814814814814813,0)" xlink:href="#bt"/><use transform="matrix(0.06172839506172839,0,0,0.06172839506172839,27.160493827160494,0)" xlink:href="#bt"/><use transform="matrix(0.06172839506172839,0,0,0.06172839506172839,39.50617283950617,0)" xlink:href="#bf"/><use transform="matrix(0.06172839506172839,0,0,0.06172839506172839,44.382716049382715,0)" xlink:href="#be"/><use transform="matrix(0.06172839506172839,0,0,0.06172839506172839,56.72839506172839,0)" xlink:href="#bg"/></g><g id="aS"><use transform="matrix(0.06172839506172839,0,0,0.06172839506172839,0,0)" xlink:href="#bf"/><use transform="matrix(0.06172839506172839,0,0,0.06172839506172839,4.876543209876543,0)" xlink:href="#bh"/></g><g id="aT"><use transform="matrix(0.06172839506172839,0,0,0.06172839506172839,0,0)" xlink:href="#bh"/><use transform="matrix(0.06172839506172839,0,0,0.06172839506172839,6.172839506172839,0)" xlink:href="#bm"/></g><g id="aU"><use transform="matrix(0.06172839506172839,0,0,0.06172839506172839,0,0)" xlink:href="#bF"/><use transform="matrix(0.06172839506172839,0,0,0.06172839506172839,12.345679012345679,0)" xlink:href="#bj"/><use transform="matrix(0.06172839506172839,0,0,0.06172839506172839,24.691358024691358,0)" xlink:href="#bD"/><use transform="matrix(0.06172839506172839,0,0,0.06172839506172839,35.80246913580247,0)" xlink:href="#bq"/><use transform="matrix(0.06172839506172839,0,0,0.06172839506172839,46.91358024691358,0)" xlink:href="#bd"/><use transform="matrix(0.06172839506172839,0,0,0.06172839506172839,59.25925925925926,0)" xlink:href="#bh"/></g><path fill="#3a414a" d="M110-160c48 1 74 30 74 79 0 53-28 85-80 85-65 0-83-55-86-122-5-90 50-162 133-122 14 7 22 21 27 39l-31 6c-5-40-67-38-82-6-9 19-15 44-15 74 11-20 30-34 60-33zm-7 138c34 0 49-23 49-58s-16-56-50-56c-29 0-50 16-49 49 1 36 15 65 50 65" id="bV"/><use transform="matrix(0.06172839506172839,0,0,0.06172839506172839,0,0)" xlink:href="#bV" id="aV"/><g id="aW"><use transform="matrix(0.06172839506172839,0,0,0.06172839506172839,0,0)" xlink:href="#bb"/><use transform="matrix(0.06172839506172839,0,0,0.06172839506172839,17.28395061728395,0)" xlink:href="#bs"/><use transform="matrix(0.06172839506172839,0,0,0.06172839506172839,24.629629629629626,0)" xlink:href="#bt"/><use transform="matrix(0.06172839506172839,0,0,0.06172839506172839,36.9753086419753,0)" xlink:href="#bd"/><use transform="matrix(0.06172839506172839,0,0,0.06172839506172839,49.32098765432098,0)" xlink:href="#bs"/></g><g id="aX"><use transform="matrix(0.06172839506172839,0,0,0.06172839506172839,0,0)" xlink:href="#bj"/><use transform="matrix(0.06172839506172839,0,0,0.06172839506172839,12.345679012345679,0)" xlink:href="#be"/><use transform="matrix(0.06172839506172839,0,0,0.06172839506172839,24.691358024691358,0)" xlink:href="#bt"/></g><g id="aY"><use transform="matrix(0.06172839506172839,0,0,0.06172839506172839,0,0)" xlink:href="#bc"/><use transform="matrix(0.06172839506172839,0,0,0.06172839506172839,12.345679012345679,0)" xlink:href="#bj"/><use transform="matrix(0.06172839506172839,0,0,0.06172839506172839,24.691358024691358,0)" xlink:href="#bG"/></g></defs></g></svg>